<?xml version="1.0" encoding="utf-8"?>
<!-- Generator: Adobe Illustrator 23.0.3, SVG Export Plug-In . SVG Version: 6.00 Build 0)  -->
<svg version="1.1" xmlns="http://www.w3.org/2000/svg" xmlns:xlink="http://www.w3.org/1999/xlink" x="0px" y="0px"
	 viewBox="0 0 1920 1080" style="enable-background:new 0 0 1920 1080;" xml:space="preserve">
<style type="text/css">
	.st0{fill:#FCFFF8;}
	.st1{fill:#D8D6EC;}
	.st2{fill:#BDDBED;}
	.st3{fill:#E2EDC1;}
	.st4{fill:#F3AC71;stroke:#EF8B46;stroke-miterlimit:10;}
	.st5{fill:#895881;}
	.st6{fill:#BDDBED;stroke:#BDDBED;stroke-miterlimit:10;}
	.st7{fill:#D8D6EC;stroke:#D8D6EC;stroke-miterlimit:10;}
	.st8{fill:#F9E2A9;stroke:#F9E2A9;stroke-miterlimit:10;}
	.st9{fill:#A17A94;}
	.st10{fill:#AEE0E8;}
	.st11{fill:#EF8B46;}
	.st12{fill:#D8ECD1;stroke:#D8ECD1;stroke-miterlimit:10;}
	.st13{fill:#FFE9C9;stroke:#FFE9C9;stroke-miterlimit:10;}
	.st14{fill:#FFFAC0;stroke:#FFFAC0;stroke-miterlimit:10;}
	.st15{fill:#E2EDC1;stroke:#E2EDC1;stroke-miterlimit:10;}
	.st16{fill:#FCE3EE;stroke:#FCE3EE;stroke-miterlimit:10;}
	.st17{fill:#E5F4FA;stroke:#E5F4FA;stroke-miterlimit:10;}
	.st18{fill:#FFCCC0;stroke:#F8DB94;stroke-miterlimit:10;}
	.st19{fill:#A1799A;}
	.st20{fill:#A17A94;stroke:#E2EDC1;stroke-miterlimit:10;}
	.st21{fill:#F6C785;}
	.st22{fill:#C8EAF5;}
	.st23{fill:#FCE3EE;}
	.st24{fill:#C6A9B5;}
	.st25{fill:#FFFAC0;}
	.st26{fill:#DFF2F7;}
	.st27{fill:#FDD0B1;stroke:#F9C3D2;stroke-miterlimit:10;}
	.st28{fill:#F9C3D2;}
	.st29{fill:#C5DF94;stroke:#C5DF94;stroke-miterlimit:10;}
	.st30{fill:#E8F2D4;}
	.st31{fill:#E76655;}
	.st32{fill:#D8ECD1;}
	.st33{fill:#E5F4FA;}
	.st34{fill:#F7EBCC;}
	.st35{fill:#F9D1B5;}
	.st36{fill:#E8F1CD;}
	.st37{fill:#FCFFC3;}
	.st38{fill:#F0C3CD;}
	.st39{fill:#F8DB94;}
	.st40{fill:#EFF8FB;}
	.st41{fill:#FFEAB0;}
</style>
<g id="Washington">
	<rect class="st0" width="1920" height="1080"/>
	<g id="banner">
		<polygon class="st1" points="1467.43,692.42 1501.31,685.01 1534.13,685.01 1540.48,698.78 1553.19,698.78 1608.25,751.72 
			1619.9,772.9 1611.43,790.9 1611.43,823.72 1599.78,823.72 1593.43,838.54 1508.72,838.54 1500.25,833.25 1499.19,802.54 
			1509.78,785.6 		"/>
		<polygon class="st2" points="977.61,63.17 1046.31,63.17 1067.49,77.84 1097.14,77.51 1107.72,89.28 1124.67,89.28 1135.25,89.28 
			1147.96,89.28 1171.25,101.13 1116.2,141.24 1105.61,178.45 1092.9,194.11 1101.37,205.82 1141.61,247.4 1006.08,264.93 
			1006.08,205.82 989.14,180.44 1001.84,164.05 		"/>
		<polygon class="st3" points="997.96,288.13 997.96,320.19 1014.9,390.9 1129.25,398.25 1148.31,373.31 1139.84,356.9 
			1161.02,343.19 1135.61,314.37 1133.49,288.13 		"/>
	</g>
	<polygon class="st4" points="234.74,44.78 364.98,55.08 363.35,155.28 324.1,149.83 263.33,162.59 262.18,157.87 236.74,164.05 
		228.99,160.94 232.39,146.14 223.73,139.26 200.2,140.98 205.74,122.67 194.58,68.49 200.75,61.01 215.49,72.4 221.63,68.91 	"/>
	<polygon class="st5" points="545.77,243.67 729.72,271.04 716.26,398.92 516.6,393.87 	"/>
	<polygon class="st6" points="324.69,646.59 311.98,666.95 311.98,683.54 292.92,683.54 308.8,706.72 214.57,703.27 214.57,676.66 
		199.75,646.59 199.75,636.58 178.57,636.58 151.04,613.48 142.57,586.47 117.16,522.6 117.16,512.22 117.16,471.77 108.69,443.01 
		100.22,406.3 108.69,384.77 100.22,356.71 123.51,334.48 121.39,303.42 223.04,334.48 193.39,454.25 	"/>
	<polygon class="st7" points="256.21,340.38 396.66,374.74 367.09,536.29 365.24,560.01 356,560.01 344.92,550.77 339.37,574.34 
		234.03,425.57 	"/>
	<polygon class="st8" points="177.91,142.32 196.97,146.4 196.97,166.87 230.85,167.2 252.03,190.5 302.85,191.93 336.74,195.66 
		347.32,219.44 324.03,248.53 315.56,337.54 131.32,283.47 120.74,255.42 	"/>
	<path class="st9" d="M357.49,870.42l-10.59-31.87v-9.37l29.65-16.94l46.59,26.31h23.29l8.47,111.96l59.29,43.85l-14.82,25.41
		l-25.41-36l-43.41-16.94l-9.53-27.53l-10.59,2.12l-2.12,19.06l-23.29,2.12l2.12-12.09h-12.71l6.35,22.67l-50.82,31.76l-50.82,4.24
		l67.76-36l-10.59-22.67l-8.47-15.44L315.13,916c0,0,4.24-12.71,16.94-12.71c12.71,0,29.65-2.12,29.65-2.12l-25.41-14.82
		l-14.82-15.94c0,0-2.12-14.66,4.24-16.3s16.94,0,16.94,0L357.49,870.42z"/>
	<g>
		<g>
			<path class="st10" d="M1651.53-221.53c7.72,0,7.73-12,0-12C1643.81-233.53,1643.8-221.53,1651.53-221.53L1651.53-221.53z"/>
		</g>
	</g>
	<g>
		<g>
			<path class="st11" d="M247.24,816.44c0.72-0.99,1.63-2.42,2.74-3.06c2.94-1.68,0.5,0.82-0.41,1.33
				c-0.96,0.54-2.52,1.59-2.66-0.07c-0.07-0.88,1.33-1.58,1.97-1.86c4.36-1.92,7.83,4.32,5.87,7.94c-1.73,3.2-1.86-1.67-2.27-3.1
				c-0.5-1.75-1.44-3.4-2.61-4.79c-2.68-3.2-6.56-4.98-10.73-4.87c-1.28,0.03-2.59,0.9-2.89,2.2c-1.33,5.75,3.09,11.94,8.34,14.2
				c2.18,0.94,4.68,0.86,6.6-0.62c0.83-0.64,1.45-1.45,1.8-2.45c0.21-0.59,0.33-1.36,0.33-2c0-1.67,0.35-0.57-0.4-0.46
				c-0.77-0.1-1.54-0.2-2.31-0.3c0.4,0.41,0.47,0.9,0.22,1.47c-0.34,3.85,5.66,3.82,6,0c0.36-4.04-3.36-9.63-7.74-6.04
				c-0.79,0.64-1.29,1.5-1.54,2.48c-0.16,0.61,0.1,2-0.2,2.42c-0.74,1.03-5.79-5.11-5.32-7.12c-0.96,0.73-1.93,1.47-2.89,2.2
				c2.26-0.06,4.26,0.7,5.83,2.37c1.95,2.07,1.79,4.15,1.97,6.76c0.27,4.03,4.03,6.58,7.94,5.46c7.93-2.28,7.61-14.31,2.72-19.21
				c-5.18-5.19-15.72-2.95-16.73,4.89c-0.45,3.47,1.6,7.38,5.35,7.82c3.39,0.39,8.77-2.75,10.8-5.34c2.77-3.54,0.37-8.17-3.58-9.45
				c-5-1.62-8.74,2.51-11.38,6.16C239.79,816.55,245,819.55,247.24,816.44L247.24,816.44z"/>
		</g>
	</g>
	<g>
		<g>
			<path class="st11" d="M231.49,795.18c-0.61,1.2-1.36,2.12-2.42,2.82c1.37,0.36,2.74,0.72,4.1,1.08
				c-0.17-0.31-0.18-0.32-0.04-0.03c-0.07-0.31-0.08-0.36-0.04-0.14c0.03,0.22,0.04,0.17,0.03-0.15c-0.05,0.29-0.05,0.33,0,0.11
				c0.03-0.14,0.07-0.27,0.12-0.4c-0.11,0.3-0.09,0.29,0.08-0.02c-0.04,0.06-0.08,0.12-0.12,0.18c0.25-0.24,0.27-0.25,0.05-0.03
				c-0.26,0.09-0.28,0.1-0.08,0.04c0.22-0.05,0.18-0.05-0.12-0.01c0.36,0.01,0.37,0,0.03-0.05c0.09,0.02,0.18,0.04,0.27,0.06
				c0.33,0.11,0.35,0.11,0.05,0.01c0.08,0.05,0.16,0.09,0.24,0.14c-0.24-0.19-0.23-0.17,0.02,0.06c-0.19-0.25-0.19-0.22-0.01,0.07
				c0.78,1.42,2.73,1.88,4.1,1.08c1.43-0.84,1.86-2.68,1.08-4.1c-1.6-2.93-5.67-4.24-8.61-2.49c-2.97,1.77-3.93,5.72-2.21,8.69
				c0.78,1.35,2.75,1.96,4.1,1.08c1.92-1.26,3.52-2.92,4.57-4.97c0.74-1.44,0.38-3.25-1.08-4.1
				C234.26,793.32,232.23,793.73,231.49,795.18L231.49,795.18z"/>
		</g>
	</g>
	<g>
		<g>
			<path class="st11" d="M207.52,786.85c-0.61,1.59-1.22,3.19-1.83,4.78c-0.56,1.47,0.62,3.35,2.1,3.69
				c1.72,0.39,3.09-0.52,3.69-2.1c0.61-1.59,1.22-3.19,1.83-4.78c0.56-1.47-0.62-3.35-2.1-3.69
				C209.5,784.36,208.13,785.28,207.52,786.85L207.52,786.85z"/>
		</g>
	</g>
	<g>
		<g>
			<path class="st11" d="M222.82,783.47c3.86,0,3.87-6,0-6C218.96,777.47,218.96,783.47,222.82,783.47L222.82,783.47z"/>
		</g>
	</g>
</g>
<g id="Idaho">
	<polygon class="st12" points="409.75,63.54 431.66,70.39 429.12,84.77 423.24,90.64 426.18,130.8 436.46,136.18 436.46,153.81 
		455.56,166.54 442.83,186.62 439.4,200.82 443.81,210.12 449.68,204.74 455.56,204.74 460.45,240.48 468.29,243.42 474.17,258.11 
		505.99,258.11 513.83,254.68 520.2,258.11 502.08,353.6 346.85,317.85 357.62,257.13 365.46,249.3 354.19,228.24 386.02,196.9 
		390.43,180.74 380.64,169.48 	"/>
	<polygon class="st7" points="788.02,73.85 955.31,83.38 955.31,116.21 966.96,190.32 779.55,185.03 	"/>
	<polygon class="st13" points="760.78,338.57 752.31,396.81 752.31,413.22 807.37,413.22 807.37,451.34 997.96,466.02 
		981.02,438.16 959.84,366.63 935.61,354.28 915.37,366.63 900.55,347.2 	"/>
	<polygon class="st6" points="773.49,482.3 773.49,581.83 976.78,598.25 976.78,521.94 964.08,509.48 964.08,496.99 964.08,482.3 	
		"/>
	<polygon class="st14" points="465.23,42.14 740.85,76.23 749.49,224.77 572.43,207.65 567,223.65 524.72,226.11 509.12,213.33 
		498.39,174.68 486.1,182.18 472.05,159.37 492.14,140.16 480.7,125.79 469.32,112.53 467.18,75.66 	"/>
	<polyline class="st15" points="566.31,421.45 752.66,438.15 744.19,578.2 545.14,567.42 566.31,432.89 	"/>
	<polygon class="st16" points="582.19,598.25 751.61,608.3 738.9,778.8 630.9,778.8 582.19,778.8 582.19,802.73 546.19,790.86 	"/>
	<polygon class="st17" points="551.18,594.82 409.3,570.14 409.3,594.82 392.36,605.41 381.77,594.82 381.77,632.8 371.18,644.92 
		381.77,665.3 371.18,680.78 371.18,696.12 352.13,715.06 451.66,783.02 523.66,799.88 	"/>
	<polygon class="st18" points="523.56,568.68 541.69,420.72 487.56,425.49 483.98,384.8 412.85,373.45 396.66,543.51 	"/>
</g>
<g id="Layer_5">
	<polygon class="st19" points="1410.77,873.25 1418.57,893.8 1449.04,888.13 1475.97,893.8 1488.02,912.23 1497.95,915.77 
		1518.5,894.51 1534.8,894.51 1575.91,925.7 1575.91,946.25 1570.24,956.17 1575.91,963.97 1585.12,959.72 1590.08,971.76 
		1590.08,983.1 1599.3,995.86 1609.22,995.86 1609.22,1005.78 1614.18,1009.33 1620.56,1028.46 1634.73,1032.01 1646.07,1046.89 
		1652.45,1046.89 1670.88,1046.89 1676.55,1035.55 1673.01,982.4 1641.82,939.16 1637.57,918.61 1614.89,888.84 1602.13,854.11 
		1590.79,854.11 1579.45,869.7 1500.07,869 1491.57,860.49 	"/>
	<polyline class="st20" points="1528.38,214.86 1528.78,195.63 1515.88,231.82 1509.79,232.7 1468.32,230.84 1478.93,256.37 
		1462.36,274.25 1462.13,285.38 1510.03,270.17 1528.16,274.59 1555.82,258.96 1576.99,263.45 1582.85,273.69 1625.19,282.67 
		1617.72,252.14 1618.45,216.72 1609.86,191.23 1602.78,191.08 1603.17,171.86 1595.33,159.55 1595.64,144.37 1561.02,153.78 
		1529.91,189.58 	"/>
	<polygon class="st21" points="1562.55,676.47 1562.55,664.83 1581.61,647.89 1613.37,647.89 1619.73,641.53 1630.31,651.06 
		1630.31,659 1635.61,659 1641.96,650 1666.31,650 1688.55,670.12 1700.2,676.47 1685.37,691.3 1687.49,705.06 1671.61,715.65 
		1672.67,724.12 1662.08,730.47 1655.73,730.47 1645.14,748.47 1622.9,729.42 1618.67,714.59 	"/>
	<polygon class="st22" points="1596.43,575.57 1596.43,584.04 1575.25,600.98 1564.67,600.98 1550.55,618.63 1531.49,625.69 
		1521.61,636.28 1521.61,641.92 1556.2,641.92 1571.02,634.86 1586.55,627.1 1615.49,627.8 1623.25,624.28 1627.49,629.22 
		1627.49,637.69 1633.84,637.69 1640.9,629.92 1657.84,629.22 1673.37,632.04 1694.55,652.51 1721.37,646.16 1721.37,634.86 
		1741.14,614.04 1753.84,606.63 1753.84,598.16 1746.78,586.16 1767.25,581.92 1771.49,569.22 1745.37,563.57 1755.96,559.33 
		1760.2,549.45 1758.08,540.28 1729.84,552.28 	"/>
	<polygon class="st23" points="1486.14,565.23 1497.6,554.44 1521.46,525.44 1531.17,535.86 1540.66,533.58 1564.86,524.69 
		1570.95,509.64 1577.07,495.89 1576.89,485.3 1586.27,476.67 1609.21,456.15 1609.03,445.56 1619.62,445.38 1629.24,450.51 
		1633.38,445.14 1647.14,444.91 1647.51,466.08 1677.35,477.21 1677.5,485.68 1677.61,492.03 1677.8,503.15 1677.88,507.8 
		1693.76,507.52 1701.37,519.16 1664.56,533.56 	"/>
	<polygon class="st24" points="1455.2,478.53 1455.2,492.3 1481.67,508.18 1495.43,512.42 1527.2,495.47 1527.2,478.53 
		1532.49,463.71 1542.02,463.71 1542.02,457.36 1567.43,429.83 1567.43,421.36 1578.02,421.36 1583.31,426.65 1583.31,421.36 
		1572.72,407.59 1566.37,412.89 1551.55,417.12 1545.2,425.59 1543.08,418.18 1504.96,413.95 1501.78,402.3 1497.55,422.42 
		1478.49,440.42 1473.2,457.36 1466.84,457.36 	"/>
	<polygon class="st3" points="1606.7,404.89 1613.05,422.89 1620.46,404.89 1637.4,404.89 1655.4,404.89 1673.4,413.89 
		1673.4,433.47 1696.7,433.47 1690.34,404.89 1704.11,426.06 1719.99,440.89 1733.75,440.89 1733.75,422.89 1718.93,422.89 
		1707.28,384.77 	"/>
	<polygon class="st25" points="1516.96,326.25 1534.96,396.13 1663.08,371.78 1683.2,347.43 1673.67,343.19 1671.55,326.25 
		1675.78,306.13 1663.08,306.13 1662.02,295.54 1633.43,290.25 1600.08,306.13 1540.25,313.54 1536.02,305.07 	"/>
	<polygon class="st26" points="1747.49,391.3 1755.96,434.36 1776.43,434.36 1776.43,430.12 	"/>
	<polygon class="st27" points="1708.14,300.84 1737.08,308.6 1737.08,317.78 1729.31,317.78 1729.31,324.13 1737.08,336.84 
		1737.08,360.13 1722.61,385.54 1708.14,376.37 1704.61,378.48 1698.25,366.48 1717.67,343.19 1708.84,334.01 1701.78,318.48 	"/>
	<polygon class="st28" points="1666.55,266.96 1673.61,300.84 1703.25,283.9 1715.96,283.9 1712.43,256.37 	"/>
	<polygon class="st29" points="1654.25,230.03 1654.25,256.15 1705.78,243.09 1717.78,256.15 1726.96,251.91 1731.2,261.79 
		1740.37,261.79 1740.37,254.03 1748.84,245.91 1748.84,239.91 1744.61,230.03 1738.96,230.03 1739.67,242.03 1717.78,230.03 
		1718.49,215.21 1712.84,215.21 	"/>
	<polygon class="st30" points="1735.29,242.74 1743.2,267.44 1753.78,262.5 1753.78,245.56 1744.54,238.5 	"/>
	<polygon class="st11" points="1685.31,200.53 1722.02,187.83 1722.02,173.71 1703.67,139.83 1691.67,101.71 1685.31,107.36 
		1685.31,134.18 1681.08,151.12 1681.08,180.06 	"/>
	<polygon class="st31" points="1723.43,140.03 1753.08,215.21 1759.43,201.44 1782.72,169.68 1782.72,160.15 1819.78,125.21 
		1813.43,118.85 1803.9,104.03 1794.37,104.03 1771.61,54.27 1760.49,48.97 1748.84,60.62 1734.02,60.62 1723.43,74.38 	"/>
	<polygon class="st22" points="1624.31,119.99 1644.43,111.51 1668.78,115.75 1662.43,167.63 1668.78,194.1 1646.55,200.53 
		1638.08,168.69 1633.84,150.69 	"/>
	<polygon class="st32" points="1379.78,322.65 1416.49,312.77 1429.19,317.71 1444.72,322.65 1462.37,312.77 1487.78,296.53 
		1496.25,309.59 1501.9,344.53 1496.96,372.77 1494.84,386.89 1481.43,391.12 1477.9,410.18 1468.72,410.18 1464.49,428.53 
		1453.19,428.53 1445.43,420.06 1440.84,424.3 1424.25,424.3 1421.43,420.77 1411.55,420.77 1404.49,415.83 1391.78,413 	"/>
	<path class="st33" d="M1226.31,147.81l7.06,10.59l19.76,3.53l4.94,4.24h18.35l14.12,12.71l4.24,15.53l12.71-23.29h10.59l3.53-13.41
		l9.18,2.12c0,0,10.59-7.06,12.71-7.06c2.12,0,11.29,1.41,11.29,1.41l21.18-0.71l4.94-9.18l-3.53-11.29l-21.88,4.94l-4.24-9.18
		l-19.06,4.24l-9.18,14.12l-19.41-3.53l-18-10.59l-16.94,2.82l0.71-7.06l7.76-11.29l-5.65-3.53l-28.24,17.65l4.94,4.94l-16.94,8.47"
		/>
	<polygon class="st33" points="1350.55,202.87 1356.2,183.11 1361.84,178.87 1361.84,170.4 1368.2,164.05 1380.9,171.11 
		1403.49,176.05 1403.49,188.76 1409.84,194.4 1409.84,207.81 1393.61,229.7 1397.84,236.05 1406.31,240.28 1423.96,212.05 
		1431.72,219.81 1436.67,240.28 1443.02,252.99 1443.02,267.81 1426.78,284.76 1424.67,300.99 1387.25,310.17 1359.72,310.17 
		1336.43,315.81 1343.49,297.46 1340.67,268.52 1332.9,247.34 1332.9,230.4 1337.14,221.93 1337.84,201.46 	"/>
	<polygon class="st34" points="1291.61,351.95 1304.31,351.95 1312.78,343.47 1332.9,343.47 1359.37,338.18 1374.2,443 1360.43,443 
		1355.14,464.18 1344.55,476.89 1332.9,468.42 1332.9,482.18 1291.61,487.47 1291.61,477.95 1302.2,458.77 1296.9,439.83 
		1299.02,426.06 1300.08,412.83 1291.61,391.12 	"/>
	<polygon class="st35" points="1155.08,173.7 1155.08,199.27 1133.9,199.27 1133.9,236.87 1163.55,245.99 1178.37,269 
		1178.37,296.28 1195.31,317.81 1273.67,311.99 1273.67,269 1273.67,245.99 1282.14,221.63 1263.08,236.87 1263.08,221.63 
		1258.84,199.27 1237.67,179.99 1208.02,179.99 1191.08,162.05 	"/>
	<polygon class="st1" points="1196.67,337.3 1258.08,331.47 1281.37,350.36 1281.37,401.38 1281.37,421.83 1281.37,443 
		1281.37,469.36 1266.55,498.06 1260.2,516.46 1239.02,525.59 1239.02,498.06 1207.25,498.06 1217.84,469.36 1196.67,469.36 
		1179.72,447.24 1171.25,428.53 1190.31,396.13 1179.72,390.42 1200.9,364.65 	"/>
	<polygon class="st21" points="1499.08,632.87 1511.78,623.34 1530.84,613.81 1547.78,598.98 1558.37,585.61 1499.08,592.63 
		1480.02,598.98 1386.84,609.24 1374.14,623.34 1336.02,609.24 1323.31,632.87 1323.31,651.93 1323.31,664.63 1482.14,664.63 	"/>
	<polygon class="st36" points="1375.84,482.71 1375.84,471.06 1387.49,476.89 1394.9,482.71 1403.37,476.89 1403.37,486.95 
		1424.55,486.95 1424.55,475.3 1436.2,486.95 1442.55,486.95 1442.55,499.53 1460.55,515.53 1418.2,557.89 1307.02,571.65 
		1258.31,580.12 1258.31,558.95 1278.43,551.53 1290.08,525.59 1351.49,525.59 1331.37,518.71 1340.9,508.12 1359.43,499.53 
		1359.43,489.06 	"/>
	<polygon class="st37" points="1452.06,832.3 1386.42,848.53 1386.42,870.42 1361.01,870.42 1361.01,711.59 1426.65,695 
		1460.53,771.77 	"/>
	<polygon class="st38" points="1349.14,870.42 1349.14,695 1287.72,695 1272.9,695 1272.9,720.06 1258.08,733.65 1270.78,782.71 
		1258.08,798.42 1258.08,833.71 1303.61,833.71 1321.61,870.42 	"/>
	<path class="st24" d="M1125.43,761.78h88.94v15.08l12.71,11.22l-23.29,12.71l2.12,32.4h46.59l10.59,16.3h10.59v15.08l16.94,27.28
		h-40.24c-14.82,6.35-42.35,6.35-42.35,6.35v-14.82l-44.47,2.12l-27.53-10.59l2.12-10.33l4.24-15.08l6.35-16.3l-23.29-30.28
		l8.47-26.04"/>
	<polygon class="st39" points="1144.49,610.05 1144.49,707.2 1161.43,707.2 1161.43,728.13 1248.25,731.33 1248.25,707.2 
		1258.84,670.69 1258.84,655.5 1271.55,640.43 1271.55,623.13 1271.55,597.93 	"/>
	<polygon class="st40" points="881.72,614.53 873.25,625.51 964.31,625.51 964.31,704.32 985.49,704.32 993.96,721.47 
		1010.9,704.32 1037.49,734.77 1055.37,721.47 1063.84,734.77 1078.67,721.47 1112.55,721.47 1112.55,614.53 	"/>
	<polygon class="st25" points="997.55,421.45 1101.31,421.45 1114.02,456.66 1137.31,467.03 1137.31,482.8 1147.9,512.77 
		1166.96,514.31 1179.67,541.5 1158.49,589.86 1147.9,557.92 1141.55,568.89 1027.2,581.01 1025.08,482.8 	"/>
	<polygon class="st11" points="787.49,208.57 971.72,208.57 949.61,224.23 971.72,230.94 971.72,321.29 935.72,321.29 
		914.55,314.21 774.78,305.59 	"/>
	<path class="st41" d="M783.25,641.35c8.47,4.02,80.47,0,80.47,0l8.47,78.82l27.53,3.44l21.18,13.7h12.71h31.76l23.29,13.3
		l23.29-13.3l16.94,13.3h21.18v59.93l27.53,32.4l-14.82,16.3l4.24,27.77h-23.29h-12.71l-6.35,14.58l2.12,14.82l-14.82,12.71h-38.12
		l-22.12,50.82v55.77l-21.29-15.53l-26.47-6.35l-25.41-27.53l4.24-19.06l-33.88-44.47l-16.94-35.76h-33.88h-14.82l-14.82,20.93
		l-42.35-20.93l-21.18-27.77l-36-63.53l118.59,4.24L783.25,641.35z"/>
</g>
</svg>
