<?xml version="1.0" encoding="utf-8"?>
<!-- Generator: Adobe Illustrator 23.0.4, SVG Export Plug-In . SVG Version: 6.00 Build 0)  -->
<svg version="1.1" id="Layer_2" xmlns="http://www.w3.org/2000/svg" xmlns:xlink="http://www.w3.org/1999/xlink" x="0px" y="0px"
	 viewBox="0 0 1850 350" style="enable-background:new 0 0 1850 350;" xml:space="preserve">
<style type="text/css">
	.st0{fill:#3FA9F5;}
	.st1{fill:#F2F2F2;}
	.st2{fill:none;}
	.st3{fill:#FFFFFF;}
	.st4{font-family:'Arial-Black';}
	.st5{font-size:170.1405px;}
	.st6{fill:none;stroke:#F2F2F2;stroke-width:14;stroke-linecap:round;stroke-linejoin:round;stroke-miterlimit:10;}
</style>
<g>
	<path class="st0" d="M1803.61,278H40c-6.6,0-12-5.4-12-12V84.7c0-6.6,5.4-12,12-12h1763.61c6.6,0,12,5.4,12,12V266
		C1815.61,272.6,1810.21,278,1803.61,278z"/>
	<path class="st1" d="M1803.61,72.7h-12v5h12V72.7L1803.61,72.7L1803.61,72.7z M1779.61,72.7h-12v5h12V72.7L1779.61,72.7z
		 M1755.61,72.7h-12v5h12V72.7L1755.61,72.7z M1731.61,72.7h-12v5h12V72.7L1731.61,72.7z M1707.61,72.7h-12v5h12V72.7L1707.61,72.7z
		 M1683.61,72.7h-12v5h12V72.7L1683.61,72.7z M1659.61,72.7h-12v5h12V72.7L1659.61,72.7z M1635.61,72.7h-12v5h12V72.7L1635.61,72.7z
		 M1611.61,72.7h-12v5h12V72.7L1611.61,72.7z M1587.61,72.7h-12v5h12V72.7L1587.61,72.7z M1563.61,72.7h-12v5h12V72.7L1563.61,72.7z
		 M1539.61,72.7h-12v5h12V72.7L1539.61,72.7z M1515.61,72.7h-12v5h12V72.7L1515.61,72.7z M1491.61,72.7h-12v5h12V72.7L1491.61,72.7z
		 M1467.61,72.7h-12v5h12V72.7L1467.61,72.7z M1443.61,72.7h-12v5h12V72.7L1443.61,72.7z M1419.61,72.7h-12v5h12V72.7L1419.61,72.7z
		 M1395.61,72.7h-12v5h12V72.7L1395.61,72.7z M1371.61,72.7h-12v5h12V72.7L1371.61,72.7z M1347.61,72.7h-12v5h12V72.7L1347.61,72.7z
		 M1323.61,72.7h-12v5h12V72.7L1323.61,72.7z M1299.61,72.7h-12v5h12V72.7L1299.61,72.7z M1275.61,72.7h-12v5h12V72.7L1275.61,72.7z
		 M1251.61,72.7h-12v5h12V72.7L1251.61,72.7z M1227.61,72.7h-12v5h12V72.7L1227.61,72.7z M1203.61,72.7h-12v5h12V72.7L1203.61,72.7z
		 M1179.61,72.7h-12v5h12V72.7L1179.61,72.7z M1155.61,72.7h-12v5h12V72.7L1155.61,72.7z M1131.61,72.7h-12v5h12V72.7L1131.61,72.7z
		 M1107.61,72.7h-12v5h12V72.7L1107.61,72.7z M1083.61,72.7h-12v5h12V72.7L1083.61,72.7z M1059.61,72.7h-12v5h12V72.7L1059.61,72.7z
		 M1035.61,72.7h-12v5h12V72.7L1035.61,72.7z M1011.61,72.7h-12v5h12V72.7L1011.61,72.7z M987.61,72.7h-12v5h12V72.7L987.61,72.7z
		 M963.61,72.7h-12v5h12V72.7L963.61,72.7z M939.61,72.7h-12v5h12V72.7L939.61,72.7z M915.61,72.7h-12v5h12V72.7L915.61,72.7z
		 M891.61,72.7h-12v5h12V72.7L891.61,72.7z M867.61,72.7h-12v5h12V72.7L867.61,72.7z M843.61,72.7h-12v5h12V72.7L843.61,72.7z
		 M819.61,72.7h-12v5h12V72.7L819.61,72.7z M795.61,72.7h-12v5h12V72.7L795.61,72.7z M771.61,72.7h-12v5h12V72.7L771.61,72.7z
		 M747.61,72.7h-12v5h12V72.7L747.61,72.7z M723.61,72.7h-12v5h12V72.7L723.61,72.7z M699.61,72.7h-12v5h12V72.7L699.61,72.7z
		 M675.61,72.7h-12v5h12V72.7L675.61,72.7z M651.61,72.7h-12v5h12V72.7L651.61,72.7z M627.61,72.7h-12v5h12V72.7L627.61,72.7z
		 M603.61,72.7h-12v5h12V72.7L603.61,72.7z M579.61,72.7h-12v5h12V72.7L579.61,72.7z M555.61,72.7h-12v5h12V72.7L555.61,72.7z
		 M531.61,72.7h-12v5h12V72.7L531.61,72.7z M507.61,72.7h-12v5h12V72.7L507.61,72.7z M483.61,72.7h-12v5h12V72.7L483.61,72.7z
		 M459.61,72.7h-12v5h12V72.7L459.61,72.7z M435.61,72.7h-12v5h12V72.7L435.61,72.7z M411.61,72.7h-12v5h12V72.7L411.61,72.7z
		 M387.61,72.7h-12v5h12V72.7L387.61,72.7z M363.61,72.7h-12v5h12V72.7L363.61,72.7z M339.61,72.7h-12v5h12V72.7L339.61,72.7z
		 M315.61,72.7h-12v5h12V72.7L315.61,72.7z M291.61,72.7h-12v5h12V72.7L291.61,72.7z M267.61,72.7h-12v5h12V72.7L267.61,72.7z
		 M243.61,72.7h-12v5h12V72.7L243.61,72.7z M219.61,72.7h-12v5h12V72.7L219.61,72.7z M195.61,72.7h-12v5h12V72.7L195.61,72.7z
		 M171.61,72.7h-12v5h12V72.7L171.61,72.7z M147.61,72.7h-12v5h12V72.7L147.61,72.7z M123.61,72.7h-12v5h12V72.7L123.61,72.7z
		 M99.61,72.7h-12v5h12V72.7L99.61,72.7z M75.61,72.7h-12v5h12V72.7L75.61,72.7z M51.61,72.7H40l0,0c-0.01,0-0.03,0-0.04,0
		c0,0-0.01,0-0.01,0c-0.01,0-0.02,0-0.03,0c0,0-0.01,0-0.01,0c-0.1,0-0.19,0-0.29,0.01l0.16,5c0.08,0,0.15,0,0.23,0h11.61V72.7
		L51.61,72.7z M29.7,78.56c-0.62,1.03-1.09,2.16-1.38,3.37c0,0,0,0,0,0c-0.01,0.05-0.02,0.1-0.03,0.14c0,0,0,0,0,0
		c-0.01,0.04-0.02,0.07-0.02,0.11c0,0,0,0,0,0c0,0.01,0,0.02-0.01,0.03c0,0,0,0,0,0c-0.01,0.03-0.01,0.07-0.02,0.1
		c0,0,0,0.01,0,0.01c0,0.01,0,0.02-0.01,0.03c0,0,0,0.01,0,0.01c-0.01,0.03-0.01,0.07-0.02,0.1c0,0,0,0.01,0,0.01
		c0,0.01,0,0.02-0.01,0.03c0,0,0,0.01,0,0.01c0,0.02-0.01,0.04-0.01,0.06c0,0,0,0.01,0,0.01c0,0.01,0,0.02-0.01,0.03
		c0,0,0,0.01,0,0.01c0,0.01,0,0.02-0.01,0.03c0,0,0,0,0,0c0,0.02-0.01,0.04-0.01,0.06c0,0,0,0.01,0,0.01c0,0.01,0,0.02,0,0.03
		c0,0,0,0.01,0,0.01c0,0.03-0.01,0.06-0.01,0.09c0,0.01,0,0.01,0,0.02c0,0.01,0,0.02,0,0.03c0,0.01,0,0.01,0,0.02
		c0,0.02-0.01,0.04-0.01,0.05c0,0,0,0.01,0,0.01c0,0.01,0,0.02,0,0.03c0,0.01,0,0.01,0,0.02c0,0.01,0,0.02,0,0.03
		c0,0.01,0,0.01,0,0.02c0,0.01,0,0.03-0.01,0.04c0,0.01,0,0.02,0,0.02c0,0.01,0,0.02,0,0.02c0,0.01,0,0.01,0,0.02
		c0,0.01,0,0.02,0,0.02c0,0.01,0,0.01,0,0.02c0,0.01,0,0.02,0,0.04c0,0.01,0,0.02,0,0.02c0,0.01,0,0.02,0,0.02c0,0.01,0,0.02,0,0.02
		c0,0.01,0,0.02,0,0.02c0,0.01,0,0.02,0,0.03c0,0.01,0,0.02,0,0.03c0,0.01,0,0.02,0,0.03c0,0.01,0,0.01,0,0.02c0,0.01,0,0.02,0,0.03
		c0,0.01,0,0.01,0,0.02c0,0.01,0,0.03,0,0.04c0,0.01,0,0.01,0,0.02c0,0.01,0,0.02,0,0.03c0,0.01,0,0.01,0,0.02c0,0.01,0,0.02,0,0.03
		c0,0.01,0,0.01,0,0.02c0,0.01,0,0.03,0,0.04c0,0.01,0,0.01,0,0.02c0,0.01,0,0.02,0,0.03c0,0.01,0,0.01,0,0.02c0,0.01,0,0.02,0,0.03
		c0,0,0,0.01,0,0.01c0,0.01,0,0.03,0,0.04c0,0.01,0,0.01,0,0.02c0,0.01,0,0.02,0,0.03c0,0.01,0,0.01,0,0.02c0,0.01,0,0.03,0,0.04
		c0,0,0,0.01,0,0.01c0,0.01,0,0.03,0,0.04c0,0.01,0,0.01,0,0.02c0,0.01,0,0.02,0,0.03c0,0.01,0,0.01,0,0.02c0,0.02,0,0.03,0,0.05
		c0,0,0,0.01,0,0.01c0,0.01,0,0.02,0,0.04c0,0.01,0,0.01,0,0.02c0,0.01,0,0.02,0,0.03c0,0,0,0.01,0,0.01c0,0.02,0,0.03,0,0.05
		c0,0,0,0.01,0,0.01c0,0.01,0,0.02,0,0.03c0,0,0,0.01,0,0.02c0,0.01,0,0.02,0,0.04c0,0,0,0.01,0,0.01c0,0.02,0,0.03,0,0.05
		c0,0,0,0.01,0,0.01c0,0.01,0,0.02,0,0.04c0,0,0,0.01,0,0.01c0,0.01,0,0.03,0,0.04c0,0,0,0,0,0.01c0,0.02,0,0.03,0,0.05
		c0,0,0,0.01,0,0.01c0,0.01,0,0.02,0,0.03c0,0,0,0.01,0,0.01c0,0.02,0,0.03,0,0.05l0,0v5.55h5V84.7c0-1.26,0.34-2.49,0.99-3.57
		L29.7,78.56L29.7,78.56z M33,102.25h-5v12h5V102.25L33,102.25z M33,126.25h-5v12h5V126.25L33,126.25z M33,150.25h-5v12h5V150.25
		L33,150.25z M33,174.25h-5v12h5V174.25L33,174.25z M33,198.25h-5v12h5V198.25L33,198.25z M33,222.25h-5v12h5V222.25L33,222.25z
		 M33,246.25h-5v12h5V246.25L33,246.25z M33.43,268.41l-4.69,1.74c1.41,3.78,4.68,6.68,8.68,7.56l1.08-4.88
		C36.2,272.33,34.26,270.64,33.43,268.41L33.43,268.41z M61.41,273h-12v5h12V273L61.41,273z M85.41,273h-12v5h12V273L85.41,273z
		 M109.41,273h-12v5h12V273L109.41,273z M133.41,273h-12v5h12V273L133.41,273z M157.41,273h-12v5h12V273L157.41,273z M181.41,273
		h-12v5h12V273L181.41,273z M205.41,273h-12v5h12V273L205.41,273z M229.41,273h-12v5h12V273L229.41,273z M253.41,273h-12v5h12V273
		L253.41,273z M277.41,273h-12v5h12V273L277.41,273z M301.41,273h-12v5h12V273L301.41,273z M325.41,273h-12v5h12V273L325.41,273z
		 M349.41,273h-12v5h12V273L349.41,273z M373.41,273h-12v5h12V273L373.41,273z M397.41,273h-12v5h12V273L397.41,273z M421.41,273
		h-12v5h12V273L421.41,273z M445.41,273h-12v5h12V273L445.41,273z M469.41,273h-12v5h12V273L469.41,273z M493.41,273h-12v5h12V273
		L493.41,273z M517.41,273h-12v5h12V273L517.41,273z M541.41,273h-12v5h12V273L541.41,273z M565.41,273h-12v5h12V273L565.41,273z
		 M589.41,273h-12v5h12V273L589.41,273z M613.41,273h-12v5h12V273L613.41,273z M637.41,273h-12v5h12V273L637.41,273z M661.41,273
		h-12v5h12V273L661.41,273z M685.41,273h-12v5h12V273L685.41,273z M709.41,273h-12v5h12V273L709.41,273z M733.41,273h-12v5h12V273
		L733.41,273z M757.41,273h-12v5h12V273L757.41,273z M781.41,273h-12v5h12V273L781.41,273z M805.41,273h-12v5h12V273L805.41,273z
		 M829.41,273h-12v5h12V273L829.41,273z M853.41,273h-12v5h12V273L853.41,273z M877.41,273h-12v5h12V273L877.41,273z M901.41,273
		h-12v5h12V273L901.41,273z M925.41,273h-12v5h12V273L925.41,273z M949.41,273h-12v5h12V273L949.41,273z M973.41,273h-12v5h12V273
		L973.41,273z M997.41,273h-12v5h12V273L997.41,273z M1021.41,273h-12v5h12V273L1021.41,273z M1045.41,273h-12v5h12V273L1045.41,273
		z M1069.41,273h-12v5h12V273L1069.41,273z M1093.41,273h-12v5h12V273L1093.41,273z M1117.41,273h-12v5h12V273L1117.41,273z
		 M1141.41,273h-12v5h12V273L1141.41,273z M1165.41,273h-12v5h12V273L1165.41,273z M1189.41,273h-12v5h12V273L1189.41,273z
		 M1213.41,273h-12v5h12V273L1213.41,273z M1237.41,273h-12v5h12V273L1237.41,273z M1261.41,273h-12v5h12V273L1261.41,273z
		 M1285.41,273h-12v5h12V273L1285.41,273z M1309.41,273h-12v5h12V273L1309.41,273z M1333.41,273h-12v5h12V273L1333.41,273z
		 M1357.41,273h-12v5h12V273L1357.41,273z M1381.41,273h-12v5h12V273L1381.41,273z M1405.41,273h-12v5h12V273L1405.41,273z
		 M1429.41,273h-12v5h12V273L1429.41,273z M1453.41,273h-12v5h12V273L1453.41,273z M1477.41,273h-12v5h12V273L1477.41,273z
		 M1501.41,273h-12v5h12V273L1501.41,273z M1525.41,273h-12v5h12V273L1525.41,273z M1549.41,273h-12v5h12V273L1549.41,273z
		 M1573.41,273h-12v5h12V273L1573.41,273z M1597.41,273h-12v5h12V273L1597.41,273z M1621.41,273h-12v5h12V273L1621.41,273z
		 M1645.41,273h-12v5h12V273L1645.41,273z M1669.41,273h-12v5h12V273L1669.41,273z M1693.41,273h-12v5h12V273L1693.41,273z
		 M1717.41,273h-12v5h12V273L1717.41,273z M1741.41,273h-12v5h12V273L1741.41,273z M1765.41,273h-12v5h12V273L1765.41,273z
		 M1789.41,273h-12v5h12V273L1789.41,273z M1808.7,270.78c-1.35,1.43-3.15,2.22-5.09,2.22h-2.2v5h2.2c0.01,0,0.03,0,0.04,0
		c0,0,0.01,0,0.02,0c0.01,0,0.02,0,0.02,0c0.01,0,0.01,0,0.02,0c0.01,0,0.01,0,0.02,0c0.01,0,0.01,0,0.02,0c0.01,0,0.02,0,0.02,0
		c0.01,0,0.01,0,0.02,0c0.01,0,0.02,0,0.02,0c0.01,0,0.01,0,0.02,0c0.01,0,0.02,0,0.02,0c0.01,0,0.01,0,0.02,0c0.01,0,0.01,0,0.02,0
		c0.01,0,0.01,0,0.02,0c0.01,0,0.01,0,0.02,0c0.01,0,0.01,0,0.02,0c0.01,0,0.01,0,0.02,0c0.01,0,0.01,0,0.02,0c0.01,0,0.01,0,0.02,0
		c0.01,0,0.01,0,0.02,0c0.01,0,0.02,0,0.02,0c0.01,0,0.01,0,0.02,0c0.01,0,0.02,0,0.02,0c0.01,0,0.01,0,0.02,0c0.01,0,0.01,0,0.02,0
		c0.01,0,0.01,0,0.02,0c0.01,0,0.02,0,0.02,0c0.01,0,0.01,0,0.02,0c0.01,0,0.02,0,0.02,0c0,0,0.01,0,0.02,0c0.01,0,0.02,0,0.02,0
		c0.01,0,0.01,0,0.02,0c0.01,0,0.02,0,0.02,0c0.01,0,0.01,0,0.02,0c0.01,0,0.02,0,0.02,0c0,0,0.01,0,0.01,0c0.01,0,0.02,0,0.03,0
		c0,0,0.01,0,0.01,0c0.01,0,0.02,0,0.03,0c0,0,0.01,0,0.01,0c0.01,0,0.02,0,0.03,0c0,0,0.01,0,0.01,0c0.01,0,0.02,0,0.03,0
		c0,0,0,0,0.01,0c0.08-0.01,0.16-0.01,0.23-0.02c0,0,0,0,0.01,0c0.01,0,0.02,0,0.03,0c0,0,0,0,0.01,0c0.01,0,0.02,0,0.03,0
		c0,0,0,0,0.01,0c0.01,0,0.02,0,0.03,0c0,0,0,0,0.01,0c0.01,0,0.02,0,0.03,0c0,0,0.01,0,0.01,0c0.01,0,0.02,0,0.03,0
		c0,0,0.01,0,0.01,0c0.01,0,0.02,0,0.03,0c0,0,0.01,0,0.01,0c0.01,0,0.02,0,0.03,0c0,0,0.01,0,0.01,0c0.01,0,0.02,0,0.03,0
		c0,0,0.01,0,0.01,0c0.01,0,0.02,0,0.03,0c0,0,0,0,0.01,0c0.01,0,0.02,0,0.03,0c0,0,0,0,0.01,0c0.01,0,0.02,0,0.03,0c0,0,0,0,0,0
		c0.01,0,0.02,0,0.03,0c0,0,0,0,0,0c0.01,0,0.02,0,0.04,0c0,0,0,0,0,0c0.01,0,0.02,0,0.04-0.01l0,0c2.72-0.38,5.15-1.68,6.97-3.57
		c0,0,0,0,0,0c0.01-0.01,0.02-0.02,0.02-0.03c0,0,0,0,0,0c0.01-0.01,0.02-0.02,0.02-0.02c0,0,0,0,0,0c0.01-0.01,0.01-0.02,0.02-0.02
		c0,0,0,0,0-0.01c0.01-0.01,0.01-0.01,0.02-0.02c0,0,0,0,0,0L1808.7,270.78L1808.7,270.78z M1815.61,251.04h-5v12h5V251.04
		L1815.61,251.04z M1815.61,227.04h-5v12h5V227.04L1815.61,227.04z M1815.61,203.04h-5v12h5V203.04L1815.61,203.04z M1815.61,179.04
		h-5v12h5V179.04L1815.61,179.04z M1815.61,155.04h-5v12h5V155.04L1815.61,155.04z M1815.61,131.04h-5v12h5V131.04L1815.61,131.04z
		 M1815.61,107.04h-5v12h5V107.04L1815.61,107.04z M1815.5,83.05l-4.95,0.69c0.04,0.32,0.07,0.64,0.07,0.96v10.34h5V84.7l0,0
		c0-0.02,0-0.03,0-0.05c0,0,0-0.01,0-0.01c0-0.01,0-0.02,0-0.03c0,0,0-0.01,0-0.01c0-0.02,0-0.03,0-0.05c0,0,0-0.01,0-0.01
		c0-0.01,0-0.03,0-0.04c0-0.01,0-0.01,0-0.02c0-0.01,0-0.02,0-0.03c0,0,0-0.01,0-0.01c0-0.02,0-0.03,0-0.05c0,0,0-0.01,0-0.01
		c0-0.01,0-0.02,0-0.03c0-0.01,0-0.01,0-0.02c0-0.01,0-0.02,0-0.03c0,0,0-0.01,0-0.01c0-0.01,0-0.03,0-0.04c0,0,0-0.01,0-0.01
		c0-0.01,0-0.02,0-0.03c0-0.01,0-0.01,0-0.02c0-0.01,0-0.02,0-0.04c0,0,0-0.01,0-0.01c0-0.01,0-0.03,0-0.04c0,0,0-0.01,0-0.02
		c0-0.01,0-0.02,0-0.03c0,0,0-0.01,0-0.01c0-0.02,0-0.03,0-0.05c0,0,0,0,0,0c0-0.02,0-0.03,0-0.05c0,0,0-0.01,0-0.01
		c0-0.01,0-0.03,0-0.04c0,0,0-0.01,0-0.01c0-0.03,0-0.07-0.01-0.1c0,0,0,0,0,0C1815.55,83.52,1815.53,83.28,1815.5,83.05
		L1815.5,83.05z M1803.61,72.7v5c1.02,0,2,0.22,2.92,0.64l2.11-4.53c-0.87-0.4-1.79-0.71-2.76-0.89c0,0,0,0,0,0
		c-0.01,0-0.02,0-0.04-0.01c0,0,0,0,0,0c-0.01,0-0.02,0-0.03-0.01c0,0,0,0-0.01,0c-0.01,0-0.02,0-0.03-0.01c0,0,0,0-0.01,0
		c-0.01,0-0.02,0-0.03-0.01c0,0,0,0-0.01,0c-0.01,0-0.02,0-0.03-0.01c0,0,0,0,0,0c-0.01,0-0.02,0-0.03-0.01c0,0,0,0,0,0
		c-0.07-0.01-0.14-0.02-0.22-0.04c0,0,0,0-0.01,0c-0.01,0-0.02,0-0.03,0c0,0-0.01,0-0.01,0c-0.01,0-0.02,0-0.03,0c0,0-0.01,0-0.01,0
		c-0.01,0-0.02,0-0.03,0c0,0-0.01,0-0.01,0c-0.01,0-0.02,0-0.03,0c0,0-0.01,0-0.01,0c-0.01,0-0.02,0-0.03,0c0,0-0.01,0-0.01,0
		c-0.01,0-0.02,0-0.03,0c0,0-0.01,0-0.01,0c-0.01,0-0.02,0-0.03,0c0,0-0.01,0-0.01,0c-0.01,0-0.02,0-0.03,0c0,0,0,0,0,0
		c-0.05-0.01-0.09-0.01-0.14-0.02c0,0-0.01,0-0.01,0c-0.01,0-0.02,0-0.03,0c0,0-0.01,0-0.01,0c-0.01,0-0.02,0-0.03,0
		c0,0-0.01,0-0.01,0c-0.01,0-0.02,0-0.03,0c0,0-0.01,0-0.01,0c-0.01,0-0.02,0-0.02,0c-0.01,0-0.01,0-0.02,0c-0.01,0-0.01,0-0.02,0
		c-0.01,0-0.01,0-0.02,0c-0.01,0-0.02,0-0.02,0c-0.01,0-0.01,0-0.02,0c-0.01,0-0.02,0-0.02,0c0,0-0.01,0-0.01,0
		c-0.01,0-0.02,0-0.02,0c0,0-0.01,0-0.02,0c-0.01,0-0.02,0-0.02,0c0,0-0.01,0-0.01,0c-0.03,0-0.06,0-0.09-0.01
		c-0.01,0-0.01,0-0.02,0c-0.01,0-0.01,0-0.02,0c-0.01,0-0.01,0-0.02,0c-0.01,0-0.01,0-0.02,0c-0.01,0-0.01,0-0.02,0
		c-0.01,0-0.01,0-0.02,0c-0.01,0-0.01,0-0.02,0c-0.01,0-0.01,0-0.02,0c-0.01,0-0.01,0-0.02,0c-0.01,0-0.01,0-0.02,0
		c-0.01,0-0.01,0-0.02,0c-0.01,0-0.01,0-0.02,0c-0.01,0-0.01,0-0.02,0c-0.01,0-0.01,0-0.02,0c-0.01,0-0.01,0-0.02,0
		c-0.01,0-0.01,0-0.02,0c-0.01,0-0.01,0-0.02,0c-0.01,0-0.01,0-0.02,0c-0.01,0-0.01,0-0.02,0c-0.01,0-0.01,0-0.02,0
		c-0.01,0-0.01,0-0.02,0c-0.01,0-0.02,0-0.03,0c-0.01,0-0.02,0-0.03,0c0,0-0.01,0-0.01,0c-0.01,0-0.02,0-0.03,0
		c-0.01,0-0.01,0-0.02,0c-0.01,0-0.01,0-0.02,0c-0.01,0-0.01,0-0.02,0s-0.01,0-0.02,0c-0.01,0-0.01,0-0.02,0c-0.01,0-0.01,0-0.02,0
		c-0.01,0-0.01,0-0.02,0c-0.01,0-0.01,0-0.02,0c-0.01,0-0.01,0-0.02,0c-0.01,0-0.01,0-0.02,0c-0.01,0-0.01,0-0.02,0
		c-0.01,0-0.01,0-0.02,0c-0.01,0-0.01,0-0.02,0c-0.01,0-0.01,0-0.02,0c-0.01,0-0.01,0-0.02,0c-0.01,0-0.01,0-0.02,0
		c-0.01,0-0.01,0-0.02,0c-0.01,0-0.02,0-0.03,0c0,0-0.01,0-0.01,0C1803.64,72.7,1803.62,72.7,1803.61,72.7L1803.61,72.7
		L1803.61,72.7z"/>
</g>
<rect x="69.95" y="116.2" class="st2" width="1822.05" height="161.75"/>
<text transform="matrix(1 0 0 1 69.9473 238.0166)" class="st3 st4 st5">CONTACT ME</text>
<line class="st6" x1="1725.43" y1="115.8" x2="1454.34" y2="115.8"/>
<line class="st6" x1="1454.34" y1="116.37" x2="1454.34" y2="236.6"/>
<line class="st6" x1="1725.43" y1="115.8" x2="1725.43" y2="236.6"/>
<line class="st6" x1="1454.34" y1="236.6" x2="1725.43" y2="236.6"/>
<line class="st6" x1="1454.34" y1="115.8" x2="1589.32" y2="193.29"/>
<line class="st6" x1="1723.17" y1="115.8" x2="1589.32" y2="193.29"/>
<line class="st6" x1="1454.34" y1="236.6" x2="1559.83" y2="176.2"/>
<line class="st6" x1="1725.43" y1="236.6" x2="1618.81" y2="176.2"/>
</svg>
