<?xml version="1.0" encoding="utf-8"?>
<!-- Generator: Adobe Illustrator 23.0.4, SVG Export Plug-In . SVG Version: 6.00 Build 0)  -->
<svg version="1.1" id="Layer_1" xmlns="http://www.w3.org/2000/svg" xmlns:xlink="http://www.w3.org/1999/xlink" x="0px" y="0px"
	 viewBox="0 0 1920 1080" style="enable-background:new 0 0 1920 1080;" xml:space="preserve">
<style type="text/css">
	.st0{fill:#FFFFFF;}
	.st1{fill:#999999;}
	.st2{font-family:'HiraKakuStdN-W8-83pv-RKSJ-H';}
	.st3{font-size:120px;}
	.st4{clip-path:url(#XMLID_3_);}
	.st5{fill:#F1EB15;}
	.st6{fill:url(#SVGID_1_);}
	.st7{opacity:0.01;fill:#FFFFFF;enable-background:new    ;}
	.st8{font-family:'Verdana';}
	.st9{font-size:11.0661px;}
	.st10{opacity:0.35;}
	.st11{fill:#FFFFFF;stroke:#555555;stroke-width:20;}
</style>
<g>
	<path class="st0" d="M1585,540H297c-6.6,0-12-5.4-12-12V401c0-6.6,5.4-12,12-12h1288c6.6,0,12,5.4,12,12v127
		C1597,534.6,1591.6,540,1585,540z"/>
	<path class="st1" d="M1585,389h-12v4h12V389L1585,389L1585,389z M1561,389h-12v4h12V389L1561,389z M1537,389h-12v4h12V389L1537,389
		z M1513,389h-12v4h12V389L1513,389z M1489,389h-12v4h12V389L1489,389z M1465,389h-12v4h12V389L1465,389z M1441,389h-12v4h12V389
		L1441,389z M1417,389h-12v4h12V389L1417,389z M1393,389h-12v4h12V389L1393,389z M1369,389h-12v4h12V389L1369,389z M1345,389h-12v4
		h12V389L1345,389z M1321,389h-12v4h12V389L1321,389z M1297,389h-12v4h12V389L1297,389z M1273,389h-12v4h12V389L1273,389z M1249,389
		h-12v4h12V389L1249,389z M1225,389h-12v4h12V389L1225,389z M1201,389h-12v4h12V389L1201,389z M1177,389h-12v4h12V389L1177,389z
		 M1153,389h-12v4h12V389L1153,389z M1129,389h-12v4h12V389L1129,389z M1105,389h-12v4h12V389L1105,389z M1081,389h-12v4h12V389
		L1081,389z M1057,389h-12v4h12V389L1057,389z M1033,389h-12v4h12V389L1033,389z M1009,389h-12v4h12V389L1009,389z M985,389h-12v4
		h12V389L985,389z M961,389h-12v4h12V389L961,389z M937,389h-12v4h12V389L937,389z M913,389h-12v4h12V389L913,389z M889,389h-12v4
		h12V389L889,389z M865,389h-12v4h12V389L865,389z M841,389h-12v4h12V389L841,389z M817,389h-12v4h12V389L817,389z M793,389h-12v4
		h12V389L793,389z M769,389h-12v4h12V389L769,389z M745,389h-12v4h12V389L745,389z M721,389h-12v4h12V389L721,389z M697,389h-12v4
		h12V389L697,389z M673,389h-12v4h12V389L673,389z M649,389h-12v4h12V389L649,389z M625,389h-12v4h12V389L625,389z M601,389h-12v4
		h12V389L601,389z M577,389h-12v4h12V389L577,389z M553,389h-12v4h12V389L553,389z M529,389h-12v4h12V389L529,389z M505,389h-12v4
		h12V389L505,389z M481,389h-12v4h12V389L481,389z M457,389h-12v4h12V389L457,389z M433,389h-12v4h12V389L433,389z M409,389h-12v4
		h12V389L409,389z M385,389h-12v4h12V389L385,389z M361,389h-12v4h12V389L361,389z M337,389h-12v4h12V389L337,389z M313,389h-12v4
		h12V389L313,389z M289.59,391.58c-0.05,0.04-0.1,0.08-0.15,0.12c0,0,0,0,0,0c-0.01,0.01-0.02,0.01-0.02,0.02c0,0,0,0,0,0
		c-0.01,0.01-0.02,0.01-0.02,0.02c0,0,0,0-0.01,0c-0.01,0.01-0.02,0.01-0.02,0.02l0,0c-0.04,0.03-0.07,0.06-0.11,0.09c0,0,0,0,0,0
		c-0.01,0.01-0.02,0.01-0.02,0.02c0,0,0,0,0,0c-0.01,0.01-0.02,0.01-0.02,0.02c0,0,0,0,0,0c-0.01,0.01-0.02,0.01-0.02,0.02
		c0,0,0,0,0,0c-0.04,0.04-0.09,0.08-0.13,0.11c0,0,0,0,0,0c-0.01,0.01-0.01,0.01-0.02,0.02c0,0,0,0-0.01,0.01
		c-0.01,0.01-0.01,0.01-0.02,0.02c0,0,0,0,0,0c-0.01,0.01-0.02,0.01-0.02,0.02c0,0,0,0,0,0c-0.03,0.03-0.07,0.06-0.1,0.09
		c0,0,0,0,0,0c-0.01,0.01-0.01,0.01-0.02,0.02c0,0,0,0-0.01,0c-0.01,0.01-0.01,0.01-0.02,0.02c0,0,0,0-0.01,0.01
		c-0.01,0.01-0.01,0.01-0.02,0.02c0,0,0,0-0.01,0.01c-0.01,0.01-0.01,0.01-0.02,0.02c0,0,0,0,0,0c-0.02,0.02-0.05,0.05-0.07,0.07
		c0,0,0,0,0,0c-0.01,0.01-0.01,0.01-0.02,0.02c0,0,0,0-0.01,0.01c-0.01,0.01-0.01,0.01-0.02,0.02c0,0,0,0-0.01,0.01
		c-0.01,0.01-0.01,0.01-0.02,0.02c0,0,0,0-0.01,0.01c-0.01,0.01-0.01,0.01-0.02,0.02c0,0,0,0-0.01,0.01
		c-0.03,0.03-0.06,0.06-0.09,0.09c0,0,0,0-0.01,0.01c-0.01,0.01-0.01,0.01-0.02,0.02c0,0-0.01,0.01-0.01,0.01
		c-0.01,0.01-0.01,0.01-0.02,0.02c0,0-0.01,0.01-0.01,0.01c-0.01,0.01-0.01,0.01-0.02,0.02c0,0,0,0-0.01,0.01
		c-0.01,0.01-0.01,0.01-0.02,0.02c0,0,0,0,0,0c-0.02,0.02-0.05,0.05-0.07,0.07c0,0,0,0,0,0c-0.01,0.01-0.01,0.01-0.02,0.02
		c0,0,0,0-0.01,0.01c-0.01,0.01-0.01,0.01-0.02,0.02c0,0-0.01,0.01-0.01,0.01c-0.01,0.01-0.01,0.01-0.02,0.02
		c0,0-0.01,0.01-0.01,0.01c-0.01,0.01-0.01,0.01-0.02,0.02c0,0,0,0-0.01,0.01c-0.03,0.03-0.06,0.06-0.09,0.1c0,0,0,0.01-0.01,0.01
		c-0.01,0.01-0.01,0.01-0.02,0.02c0,0-0.01,0.01-0.01,0.01c-0.01,0.01-0.01,0.01-0.02,0.02c0,0-0.01,0.01-0.01,0.01
		c-0.01,0.01-0.01,0.01-0.02,0.02c0,0-0.01,0.01-0.01,0.01c-0.01,0.01-0.01,0.01-0.02,0.02c0,0,0,0.01-0.01,0.01
		c-0.02,0.02-0.04,0.05-0.06,0.07c0,0,0,0-0.01,0.01c-0.01,0.01-0.01,0.01-0.02,0.02c0,0-0.01,0.01-0.01,0.01
		c-0.01,0.01-0.01,0.01-0.02,0.02c0,0-0.01,0.01-0.01,0.01c-0.01,0.01-0.01,0.01-0.02,0.02c0,0-0.01,0.01-0.01,0.01
		c-0.01,0.01-0.01,0.01-0.02,0.02c0,0-0.01,0.01-0.01,0.01c-0.01,0.01-0.01,0.01-0.02,0.02c0,0,0,0,0,0
		c-0.01,0.02-0.03,0.03-0.04,0.05c0,0,0,0,0,0.01c-0.01,0.01-0.01,0.01-0.02,0.02c0,0-0.01,0.01-0.01,0.01
		c-0.01,0.01-0.01,0.01-0.02,0.02c0,0-0.01,0.01-0.01,0.01c-0.01,0.01-0.01,0.01-0.02,0.02c0,0-0.01,0.01-0.01,0.01
		c-0.01,0.01-0.01,0.01-0.02,0.02c0,0-0.01,0.01-0.01,0.01c-0.01,0.01-0.01,0.01-0.02,0.02c0,0,0,0,0,0.01
		c-0.02,0.02-0.04,0.05-0.06,0.07c0,0-0.01,0.01-0.01,0.01c0,0.01-0.01,0.01-0.01,0.02c0,0-0.01,0.01-0.01,0.01
		c0,0.01-0.01,0.01-0.01,0.02c0,0-0.01,0.01-0.01,0.01c0,0.01-0.01,0.01-0.01,0.02c0,0-0.01,0.01-0.01,0.01
		c-0.01,0.01-0.01,0.01-0.02,0.02c0,0-0.01,0.01-0.01,0.01c-0.01,0.01-0.01,0.01-0.02,0.02c0,0,0,0,0,0
		c-0.01,0.02-0.02,0.03-0.03,0.05c0,0,0,0.01-0.01,0.01c0,0.01-0.01,0.01-0.01,0.02c0,0-0.01,0.01-0.01,0.01
		c0,0.01-0.01,0.01-0.01,0.02c0,0-0.01,0.01-0.01,0.01c0,0.01-0.01,0.01-0.01,0.02c0,0-0.01,0.01-0.01,0.01
		c0,0.01-0.01,0.01-0.01,0.02c0,0-0.01,0.01-0.01,0.01c0,0.01-0.01,0.01-0.01,0.02c0,0-0.01,0.01-0.01,0.01
		c-0.02,0.02-0.03,0.05-0.05,0.07c0,0-0.01,0.01-0.01,0.01c0,0.01-0.01,0.01-0.01,0.02c0,0-0.01,0.01-0.01,0.01
		c0,0.01-0.01,0.01-0.01,0.02c0,0-0.01,0.01-0.01,0.01c0,0.01-0.01,0.01-0.01,0.02c0,0-0.01,0.01-0.01,0.01
		c0,0.01-0.01,0.01-0.01,0.02c0,0-0.01,0.01-0.01,0.01c0,0.01-0.01,0.01-0.01,0.02c0,0.01-0.01,0.01-0.01,0.02
		c-0.01,0.01-0.01,0.02-0.02,0.03c0,0-0.01,0.01-0.01,0.01c0,0.01-0.01,0.01-0.01,0.02c0,0-0.01,0.01-0.01,0.01
		c0,0.01-0.01,0.01-0.01,0.02c0,0.01-0.01,0.01-0.01,0.02c0,0.01-0.01,0.01-0.01,0.02c0,0.01-0.01,0.01-0.01,0.02
		c0,0.01-0.01,0.01-0.01,0.02c0,0.01-0.01,0.01-0.01,0.02c0,0.01-0.01,0.01-0.01,0.02c0,0.01-0.01,0.01-0.01,0.02
		c0,0.01-0.01,0.01-0.01,0.02c0,0-0.01,0.01-0.01,0.01c-0.01,0.01-0.02,0.03-0.03,0.04c0,0-0.01,0.01-0.01,0.01
		c0,0.01-0.01,0.01-0.01,0.02c0,0-0.01,0.01-0.01,0.01c0,0.01-0.01,0.01-0.01,0.02c0,0-0.01,0.01-0.01,0.01
		c0,0.01-0.01,0.01-0.01,0.02c0,0-0.01,0.01-0.01,0.01c0,0.01-0.01,0.01-0.01,0.02c0,0-0.01,0.01-0.01,0.01
		c0,0.01-0.01,0.01-0.01,0.02c0,0,0,0.01-0.01,0.01c-0.01,0.01-0.02,0.03-0.03,0.04c0,0,0,0.01-0.01,0.01
		c0,0.01-0.01,0.01-0.01,0.02c0,0-0.01,0.01-0.01,0.01c0,0.01-0.01,0.01-0.01,0.02c0,0.01-0.01,0.01-0.01,0.02
		c0,0.01-0.01,0.01-0.01,0.02c0,0.01-0.01,0.01-0.01,0.02c0,0.01-0.01,0.01-0.01,0.02c0,0.01-0.01,0.01-0.01,0.02
		c0,0.01-0.01,0.01-0.01,0.02c0,0.01-0.01,0.01-0.01,0.02c-0.01,0.01-0.01,0.02-0.02,0.04c0,0-0.01,0.01-0.01,0.01
		c0,0.01-0.01,0.01-0.01,0.02c0,0-0.01,0.01-0.01,0.01c0,0.01-0.01,0.01-0.01,0.02c0,0.01-0.01,0.01-0.01,0.02
		c0,0.01-0.01,0.01-0.01,0.02c0,0.01-0.01,0.01-0.01,0.02c0,0.01-0.01,0.01-0.01,0.02c0,0.01-0.01,0.01-0.01,0.02
		c0,0.01-0.01,0.01-0.01,0.02c0,0-0.01,0.01-0.01,0.01c0,0.01-0.01,0.01-0.01,0.02c0,0,0,0.01-0.01,0.01
		c-0.01,0.01-0.01,0.03-0.02,0.04c0,0.01-0.01,0.01-0.01,0.02c0,0.01-0.01,0.01-0.01,0.02c0,0.01-0.01,0.01-0.01,0.02
		c0,0.01-0.01,0.01-0.01,0.02c0,0.01-0.01,0.01-0.01,0.02c0,0.01-0.01,0.01-0.01,0.02c0,0.01-0.01,0.01-0.01,0.02
		c0,0.01-0.01,0.01-0.01,0.02c0,0.01-0.01,0.01-0.01,0.02c0,0.01-0.01,0.01-0.01,0.02c0,0.01-0.01,0.01-0.01,0.02
		c-0.01,0.02-0.02,0.05-0.04,0.07c0,0.01-0.01,0.01-0.01,0.02c0,0.01-0.01,0.01-0.01,0.02c0,0.01-0.01,0.01-0.01,0.02
		c0,0.01-0.01,0.01-0.01,0.02c0,0.01-0.01,0.01-0.01,0.02c0,0.01-0.01,0.01-0.01,0.02c0,0.01-0.01,0.01-0.01,0.02
		c0,0.01-0.01,0.01-0.01,0.02c0,0.01-0.01,0.01-0.01,0.02c0,0.01-0.01,0.01-0.01,0.02c0,0.01-0.01,0.01-0.01,0.02
		c-0.01,0.01-0.01,0.02-0.02,0.03c0,0.01-0.01,0.01-0.01,0.02c0,0.01-0.01,0.01-0.01,0.02c0,0.01-0.01,0.01-0.01,0.02
		c0,0.01-0.01,0.01-0.01,0.02c0,0.01-0.01,0.01-0.01,0.02c0,0.01-0.01,0.01-0.01,0.02c0,0.01-0.01,0.01-0.01,0.02
		c0,0.01-0.01,0.01-0.01,0.02c0,0.01-0.01,0.01-0.01,0.02c0,0.01-0.01,0.01-0.01,0.02c0,0.01-0.01,0.01-0.01,0.02
		c0,0.01,0,0.01-0.01,0.02c-0.01,0.01-0.01,0.02-0.02,0.03c0,0,0,0.01-0.01,0.02c0,0.01-0.01,0.01-0.01,0.02
		c0,0.01-0.01,0.01-0.01,0.02c0,0.01-0.01,0.01-0.01,0.02c0,0.01-0.01,0.01-0.01,0.02c0,0.01-0.01,0.01-0.01,0.02
		c0,0.01-0.01,0.01-0.01,0.02c0,0.01-0.01,0.01-0.01,0.02c0,0.01-0.01,0.01-0.01,0.02c0,0.01-0.01,0.01-0.01,0.02
		c0,0.01,0,0.01-0.01,0.02c0,0.01-0.01,0.02-0.01,0.03c0,0.01-0.01,0.02-0.01,0.02c0,0.01-0.01,0.01-0.01,0.02
		c0,0.01-0.01,0.01-0.01,0.02c0,0.01-0.01,0.01-0.01,0.02c0,0.01-0.01,0.01-0.01,0.02c0,0.01-0.01,0.01-0.01,0.02
		c0,0.01-0.01,0.01-0.01,0.02c0,0.01-0.01,0.01-0.01,0.02c0,0.01-0.01,0.01-0.01,0.02c0,0.01-0.01,0.01-0.01,0.02
		c0,0.01-0.01,0.01-0.01,0.02c0,0.01-0.01,0.01-0.01,0.02c0,0,0,0.01-0.01,0.01c-0.01,0.01-0.01,0.02-0.01,0.04
		c0,0,0,0.01-0.01,0.01c0,0.01-0.01,0.02-0.01,0.02c0,0.01,0,0.01-0.01,0.02c0,0.01-0.01,0.01-0.01,0.02c0,0.01,0,0.01-0.01,0.02
		c0,0.01-0.01,0.01-0.01,0.02c0,0.01,0,0.01-0.01,0.02c0,0.01-0.01,0.01-0.01,0.02c0,0.01,0,0.01-0.01,0.02
		c0,0.01-0.01,0.01-0.01,0.02c0,0.01,0,0.01-0.01,0.02c0,0.01-0.01,0.02-0.01,0.03c0,0.01-0.01,0.01-0.01,0.02
		c0,0.01-0.01,0.02-0.01,0.03c0,0.01,0,0.01-0.01,0.02c0,0.01-0.01,0.01-0.01,0.02c0,0.01,0,0.01-0.01,0.02
		c0,0.01-0.01,0.01-0.01,0.02c0,0.01,0,0.01-0.01,0.02c0,0.01-0.01,0.01-0.01,0.02c0,0.01,0,0.01-0.01,0.02
		c0,0.01-0.01,0.01-0.01,0.02c0,0.01,0,0.01-0.01,0.02c0,0.01-0.01,0.01-0.01,0.02c0,0.01,0,0.01-0.01,0.02
		c0,0.01-0.01,0.02-0.01,0.04c0,0.01,0,0.01-0.01,0.02c0,0.01-0.01,0.01-0.01,0.02c0,0.01,0,0.01-0.01,0.02c0,0.01,0,0.01-0.01,0.02
		c0,0.01,0,0.01-0.01,0.02c0,0.01,0,0.01-0.01,0.02c0,0.01,0,0.01-0.01,0.02c0,0.01,0,0.01-0.01,0.02c0,0.01,0,0.01-0.01,0.02
		c0,0.01,0,0.01-0.01,0.02c0,0.01,0,0.01-0.01,0.02c0,0.01-0.01,0.02-0.01,0.03c0,0.01-0.01,0.01-0.01,0.02
		c0,0.01-0.01,0.02-0.01,0.03c0,0.01,0,0.01-0.01,0.02c0,0.01,0,0.01-0.01,0.02c0,0.01,0,0.01-0.01,0.02c0,0.01,0,0.01-0.01,0.02
		c0,0.01,0,0.01-0.01,0.02c0,0.01,0,0.01-0.01,0.02c0,0.01,0,0.01-0.01,0.02c0,0.01,0,0.01-0.01,0.02c0,0.01,0,0.01-0.01,0.02
		c0,0.01-0.01,0.02-0.01,0.02c0,0,0,0.01,0,0.01c0,0.01-0.01,0.02-0.01,0.04c0,0,0,0.01,0,0.01c0,0.01-0.01,0.02-0.01,0.03
		c0,0,0,0.01,0,0.01c0,0.01,0,0.02-0.01,0.02c0,0.01,0,0.01-0.01,0.02c0,0.01,0,0.01-0.01,0.02c0,0.01,0,0.01-0.01,0.02
		c0,0.01,0,0.01-0.01,0.02c0,0.01,0,0.01-0.01,0.02c0,0.01,0,0.01-0.01,0.02c0,0.01,0,0.01,0,0.02c0,0.01-0.01,0.02-0.01,0.03
		c0,0,0,0.01,0,0.01c0,0.01-0.01,0.02-0.01,0.03c0,0.01,0,0.01,0,0.01c0,0.01,0,0.02-0.01,0.02c0,0.01,0,0.01,0,0.02
		c0,0.01,0,0.01-0.01,0.02c0,0.01,0,0.01,0,0.02c0,0.01,0,0.01-0.01,0.02c0,0.01,0,0.01,0,0.02c0,0.01,0,0.01-0.01,0.02
		c0,0.01,0,0.01,0,0.02c0,0.01,0,0.02-0.01,0.02c0,0.01,0,0.01,0,0.02c0,0.01-0.01,0.02-0.01,0.04c0,0,0,0.01,0,0.02
		c0,0.01,0,0.02-0.01,0.02c0,0.01,0,0.01,0,0.02c0,0.01,0,0.02-0.01,0.02c0,0.01,0,0.01,0,0.02c0,0.01,0,0.01-0.01,0.02
		c0,0.01,0,0.01,0,0.02c0,0.01,0,0.01-0.01,0.02c0,0.01,0,0.01,0,0.02c0,0.01,0,0.02-0.01,0.02c0,0.01,0,0.01,0,0.02
		c0,0.01,0,0.02-0.01,0.03c0,0.01,0,0.01,0,0.02c0,0.01,0,0.02-0.01,0.03c0,0.01,0,0.01,0,0.02c0,0.01,0,0.01-0.01,0.02
		c0,0.01,0,0.01,0,0.02c0,0.01,0,0.02-0.01,0.02c0,0.01,0,0.01,0,0.02c0,0.01,0,0.01-0.01,0.02c0,0.01,0,0.01,0,0.02
		c0,0.01,0,0.02-0.01,0.02c0,0.01,0,0.01,0,0.02c0,0.01,0,0.02-0.01,0.03c0,0,0,0.01,0,0.01c0,0.01-0.01,0.03-0.01,0.04
		c0,0,0,0.01,0,0.01c0,0.01,0,0.02-0.01,0.03c0,0.01,0,0.01,0,0.02c0,0.01,0,0.02,0,0.02c0,0.01,0,0.01,0,0.02c0,0.01,0,0.02,0,0.02
		c0,0.01,0,0.01,0,0.02c0,0.01,0,0.02,0,0.02c0,0.01,0,0.01,0,0.02c0,0.01,0,0.02-0.01,0.03c0,0,0,0.01,0,0.01
		c0,0.01,0,0.03-0.01,0.04c0,0,0,0,0,0c0,0.01,0,0.03-0.01,0.04c0,0,0,0.01,0,0.01c0,0.01,0,0.02,0,0.03c0,0.01,0,0.01,0,0.02
		c0,0.01,0,0.02,0,0.02c0,0.01,0,0.01,0,0.02c0,0.01,0,0.02,0,0.02c0,0.01,0,0.01,0,0.02c0,0.01,0,0.02,0,0.02c0,0,0,0.01,0,0.02
		c0,0.01,0,0.02,0,0.03c0,0,0,0.01,0,0.01c0,0.01,0,0.03-0.01,0.04c0,0,0,0.01,0,0.01c0,0.01,0,0.02,0,0.03c0,0.01,0,0.01,0,0.02
		c0,0.01,0,0.02,0,0.03c0,0.01,0,0.01,0,0.02c0,0.01,0,0.02,0,0.02c0,0.01,0,0.01,0,0.02c0,0.01,0,0.02,0,0.03c0,0.01,0,0.01,0,0.02
		c0,0.01,0,0.02,0,0.03c0,0.01,0,0.01,0,0.01c0,0.01,0,0.02-0.01,0.04c0,0,0,0,0,0.01c0,0.01,0,0.02-0.01,0.04c0,0.01,0,0.01,0,0.01
		c0,0.01,0,0.02,0,0.03c0,0.01,0,0.01,0,0.02c0,0.01,0,0.02,0,0.02c0,0.01,0,0.01,0,0.02c0,0.01,0,0.02,0,0.02c0,0.01,0,0.01,0,0.02
		c0,0.01,0,0.02,0,0.02c0,0.01,0,0.01,0,0.02c0,0.01,0,0.02,0,0.03c0,0,0,0.01,0,0.01c0,0.01,0,0.03,0,0.04c0,0,0,0.01,0,0.01
		c0,0.01,0,0.02,0,0.03c0,0.01,0,0.01,0,0.02c0,0.01,0,0.02,0,0.02c0,0.01,0,0.01,0,0.02c0,0.01,0,0.02,0,0.02c0,0.01,0,0.01,0,0.02
		c0,0.01,0,0.02,0,0.02c0,0.01,0,0.01,0,0.02c0,0.01,0,0.02,0,0.03c0,0,0,0.01,0,0.01c0,0.01,0,0.03,0,0.04c0,0,0,0,0,0
		c0,0.01,0,0.03,0,0.04c0,0,0,0.01,0,0.01c0,0.01,0,0.02,0,0.03c0,0.01,0,0.01,0,0.02c0,0.01,0,0.02,0,0.02c0,0.01,0,0.01,0,0.02
		c0,0.01,0,0.02,0,0.02c0,0.01,0,0.01,0,0.02c0,0.01,0,0.02,0,0.03c0,0,0,0.01,0,0.01c0,0.01,0,0.02,0,0.03c0,0,0,0.01,0,0.01
		c0,0.01,0,0.03,0,0.04c0,0,0,0.01,0,0.01c0,0.01,0,0.02,0,0.03c0,0.01,0,0.01,0,0.02c0,0.01,0,0.02,0,0.03c0,0.01,0,0.01,0,0.02
		c0,0.01,0,0.02,0,0.02c0,0.01,0,0.01,0,0.02c0,0.01,0,0.02,0,0.02c0,0.01,0,0.01,0,0.02c0,0.01,0,0.02,0,0.03c0,0,0,0.01,0,0.01
		c0,0.01,0,0.03,0,0.04c0,0,0,0,0,0c0,0.01,0,0.03,0,0.04c0,0,0,0.01,0,0.01c0,0.01,0,0.02,0,0.03c0,0.01,0,0.01,0,0.02
		c0,0.01,0,0.02,0,0.03c0,0.01,0,0.01,0,0.02c0,0.01,0,0.02,0,0.03c0,0.01,0,0.01,0,0.02c0,0.01,0,0.02,0,0.03c0,0.01,0,0.01,0,0.02
		c0,0.01,0,0.02,0,0.03c0,0,0,0.01,0,0.01c0,0.01,0,0.03,0,0.04c0,0,0,0.01,0,0.01c0,0.01,0,0.02,0,0.03c0,0.01,0,0.01,0,0.02
		c0,0.01,0,0.02,0,0.03c0,0.01,0,0.01,0,0.02c0,0.01,0,0.02,0,0.03c0,0.01,0,0.01,0,0.02c0,0.01,0,0.02,0,0.03c0,0.01,0,0.01,0,0.02
		c0,0.01,0,0.02,0,0.03c0,0,0,0.01,0,0.01c0,0.01,0,0.03,0,0.04l0,0v1.16h4V401c0-2.45,1.12-4.74,3.06-6.28L289.59,391.58
		L289.59,391.58z M289,414.16h-4v12h4V414.16L289,414.16z M289,438.16h-4v12h4V438.16L289,438.16z M289,462.16h-4v12h4V462.16
		L289,462.16z M289,486.16h-4v12h4V486.16L289,486.16z M289,510.16h-4v12h4V510.16L289,510.16z M290.03,531.92l-3.48,1.97
		c0.18,0.32,0.38,0.64,0.59,0.94c0,0,0,0,0,0.01c0.01,0.02,0.02,0.03,0.04,0.05c0,0,0,0,0,0.01c0.01,0.02,0.02,0.04,0.04,0.05
		c0,0,0,0,0,0c0.01,0.01,0.01,0.02,0.02,0.03c0,0,0,0.01,0.01,0.01c0,0.01,0.01,0.01,0.01,0.02c0,0,0,0,0.01,0.01
		c0.01,0.01,0.01,0.02,0.02,0.03c0,0,0,0.01,0.01,0.01c0,0.01,0.01,0.01,0.01,0.02c0,0,0,0.01,0.01,0.01
		c0.01,0.01,0.01,0.02,0.02,0.02c0,0,0.01,0.01,0.01,0.01c0,0,0.01,0.01,0.01,0.01c0,0.01,0.01,0.01,0.01,0.02
		c0,0,0.01,0.01,0.01,0.01c0,0,0.01,0.01,0.01,0.01c0.01,0.01,0.01,0.02,0.02,0.02c0,0,0,0.01,0.01,0.01c0,0,0.01,0.01,0.01,0.01
		c0,0,0.01,0.01,0.01,0.01c0,0.01,0.01,0.01,0.01,0.02c0,0,0.01,0.01,0.01,0.01c0,0,0.01,0.01,0.01,0.01c0,0,0.01,0.01,0.01,0.01
		c0,0.01,0.01,0.01,0.01,0.02c0,0,0.01,0.01,0.01,0.01c0,0,0.01,0.01,0.01,0.01c0,0.01,0.01,0.01,0.01,0.02c0,0,0.01,0.01,0.01,0.01
		c0,0,0.01,0.01,0.01,0.01c0,0.01,0.01,0.01,0.01,0.02c0,0.01,0.01,0.01,0.01,0.02c0,0,0.01,0.01,0.01,0.01c0,0,0.01,0.01,0.01,0.01
		c0,0,0.01,0.01,0.01,0.01c0.01,0.01,0.01,0.01,0.02,0.02c0,0,0.01,0.01,0.01,0.01c0,0.01,0.01,0.01,0.01,0.02
		c0,0,0.01,0.01,0.01,0.01c0,0.01,0.01,0.01,0.01,0.02c0,0,0.01,0.01,0.01,0.01c0.01,0.01,0.01,0.01,0.02,0.02
		c0,0,0.01,0.01,0.01,0.01c0,0.01,0.01,0.01,0.01,0.02c0,0,0.01,0.01,0.01,0.01c0.01,0.01,0.01,0.01,0.02,0.02
		c0,0,0.01,0.01,0.01,0.01c0,0,0.01,0.01,0.01,0.01c0,0,0.01,0.01,0.01,0.01c0.01,0.01,0.01,0.01,0.02,0.02c0,0,0.01,0.01,0.01,0.01
		c0,0,0.01,0.01,0.01,0.01c0,0,0.01,0.01,0.01,0.01c0.01,0.01,0.01,0.01,0.02,0.02c0,0,0,0.01,0.01,0.01
		c0.01,0.01,0.01,0.01,0.02,0.02c0,0,0.01,0.01,0.01,0.01c0.01,0.01,0.01,0.01,0.02,0.02c0,0,0,0.01,0.01,0.01
		c0.01,0.01,0.01,0.01,0.02,0.02c0,0,0,0,0.01,0.01c0,0.01,0.01,0.01,0.02,0.02c0,0,0,0.01,0.01,0.01c0.01,0.01,0.01,0.01,0.02,0.02
		c0,0,0,0.01,0.01,0.01c0.01,0.01,0.01,0.01,0.02,0.02c0,0,0,0,0.01,0.01c0.01,0.01,0.01,0.01,0.02,0.02c0,0,0,0.01,0.01,0.01
		c0.01,0.01,0.01,0.01,0.02,0.02c0,0,0,0,0,0c0.01,0.01,0.01,0.01,0.02,0.02c0,0,0,0.01,0.01,0.01c0.01,0.01,0.01,0.01,0.02,0.02
		c0,0,0,0,0,0.01c0.01,0.01,0.01,0.01,0.02,0.02c0,0,0,0,0.01,0.01c0.01,0.01,0.01,0.01,0.02,0.02c0,0,0,0,0.01,0.01
		c0.01,0.01,0.01,0.01,0.02,0.02c0,0,0,0.01,0.01,0.01c0.01,0.01,0.01,0.01,0.02,0.02c0,0,0,0,0.01,0.01
		c0.01,0.01,0.01,0.01,0.02,0.02c0,0,0,0,0.01,0.01c0.01,0.01,0.01,0.02,0.02,0.02c0,0,0,0,0.01,0.01c0.01,0.01,0.01,0.01,0.02,0.02
		c0,0,0,0,0,0c0.01,0.01,0.01,0.02,0.02,0.02c0,0,0,0,0,0.01c0.01,0.01,0.01,0.02,0.02,0.02c0,0,0,0,0,0
		c0.01,0.01,0.01,0.01,0.02,0.02c0,0,0,0,0,0.01c0.01,0.01,0.01,0.02,0.02,0.02c0,0,0,0,0,0c0.01,0.01,0.01,0.01,0.02,0.02
		c0,0,0,0,0,0c0.01,0.01,0.01,0.02,0.02,0.02c0,0,0,0,0.01,0.01c0.01,0.01,0.01,0.01,0.02,0.02c0,0,0,0,0,0
		c0.01,0.01,0.01,0.01,0.02,0.02c0,0,0,0,0.01,0.01c0.01,0.01,0.01,0.01,0.02,0.02c0,0,0,0,0,0c0.01,0.01,0.01,0.01,0.02,0.02
		c0,0,0.01,0.01,0.01,0.01c0.01,0.01,0.01,0.01,0.02,0.02c0,0,0.01,0.01,0.01,0.01c0.01,0.01,0.01,0.01,0.02,0.02
		c0,0,0.01,0.01,0.01,0.01c0.01,0.01,0.01,0.01,0.02,0.02c0,0,0,0,0.01,0.01c0.01,0.01,0.01,0.01,0.02,0.02c0,0,0,0,0.01,0.01
		c0.01,0.01,0.01,0.01,0.02,0.02c0,0,0.01,0,0.01,0.01c0.01,0.01,0.01,0.01,0.02,0.02c0,0,0,0,0.01,0.01
		c0.01,0.01,0.01,0.01,0.02,0.02c0,0,0,0,0.01,0.01c0.01,0.01,0.01,0.01,0.02,0.02c0,0,0,0,0,0c0.01,0.01,0.01,0.01,0.02,0.02
		c0,0,0,0,0.01,0.01c0.01,0.01,0.01,0.01,0.02,0.02c0,0,0,0,0.01,0.01c0.01,0.01,0.01,0.01,0.02,0.02c0,0,0,0,0.01,0.01
		c0.01,0.01,0.01,0.01,0.02,0.02c0,0,0,0,0.01,0.01c0.01,0.01,0.01,0.01,0.02,0.02c0,0,0,0,0.01,0.01c0.01,0.01,0.01,0.01,0.02,0.02
		c0,0,0,0,0.01,0.01c0.01,0.01,0.01,0.01,0.02,0.02c0,0,0,0,0,0c0.01,0.01,0.01,0.01,0.02,0.02c0,0,0.01,0,0.01,0.01
		c0.01,0.01,0.01,0.01,0.02,0.02c0,0,0.01,0,0.01,0.01c0.01,0.01,0.01,0.01,0.02,0.02c0,0,0.01,0.01,0.01,0.01
		c0.01,0.01,0.01,0.01,0.02,0.02c0,0,0,0,0.01,0.01c0.01,0.01,0.01,0.01,0.02,0.01c0,0,0.01,0.01,0.01,0.01
		c0.01,0.01,0.01,0.01,0.02,0.02c0,0,0.01,0.01,0.01,0.01c0.01,0,0.01,0.01,0.02,0.01c0,0,0.01,0,0.01,0.01
		c0.01,0.01,0.01,0.01,0.02,0.02c0,0,0.01,0,0.01,0.01c0.01,0,0.01,0.01,0.02,0.01c0,0,0.01,0.01,0.01,0.01
		c0.01,0.01,0.01,0.01,0.02,0.02c0,0,0.01,0.01,0.01,0.01c0.01,0,0.01,0.01,0.02,0.01c0,0,0.01,0.01,0.01,0.01
		c0,0,0.01,0.01,0.01,0.01c0,0,0.01,0.01,0.01,0.01c0.01,0.01,0.01,0.01,0.02,0.02c0,0,0.01,0.01,0.01,0.01
		c0.01,0,0.01,0.01,0.02,0.01c0,0,0.01,0.01,0.01,0.01c0.01,0.01,0.01,0.01,0.02,0.02c0,0,0.01,0.01,0.01,0.01
		c0,0,0.01,0.01,0.01,0.01c0,0,0.01,0.01,0.01,0.01c0.01,0.01,0.01,0.01,0.02,0.02c0,0,0.01,0.01,0.01,0.01c0,0,0.01,0.01,0.01,0.01
		c0.01,0,0.01,0.01,0.02,0.01c0,0,0.01,0.01,0.01,0.01c0,0,0.01,0.01,0.01,0.01c0.01,0,0.01,0.01,0.02,0.01c0,0,0.01,0.01,0.01,0.01
		c0,0,0.01,0.01,0.01,0.01c0,0,0.01,0.01,0.01,0.01c0.01,0.01,0.01,0.01,0.02,0.02c0,0,0.01,0.01,0.01,0.01c0,0,0.01,0.01,0.01,0.01
		c0,0,0.01,0.01,0.01,0.01c0.01,0.01,0.01,0.01,0.02,0.02c0,0,0.01,0.01,0.01,0.01c0,0,0.01,0.01,0.01,0.01
		c0.01,0,0.01,0.01,0.02,0.01c0.01,0,0.01,0.01,0.02,0.01c0,0,0.01,0.01,0.01,0.01c0,0,0.01,0.01,0.01,0.01
		c0.01,0.01,0.02,0.01,0.02,0.02c0,0,0.01,0,0.01,0.01c0,0,0.01,0.01,0.01,0.01c0,0,0.01,0.01,0.01,0.01
		c0.01,0.01,0.01,0.01,0.02,0.02c0,0,0.01,0.01,0.01,0.01c0,0,0.01,0.01,0.01,0.01c0,0,0.01,0.01,0.01,0.01
		c0.01,0.01,0.01,0.01,0.02,0.02c0,0,0.01,0,0.01,0.01c0.01,0.01,0.02,0.01,0.03,0.02c0,0,0,0,0.01,0c0.01,0,0.01,0.01,0.02,0.01
		c0,0,0,0,0.01,0.01c0.01,0.01,0.02,0.02,0.03,0.02c0,0,0,0,0,0c0.01,0,0.01,0.01,0.02,0.01c0,0,0,0,0.01,0
		c0.01,0.01,0.02,0.01,0.03,0.02c0,0,0,0,0.01,0c0.01,0,0.01,0.01,0.02,0.01c0,0,0,0,0,0c0.01,0.01,0.02,0.02,0.03,0.02c0,0,0,0,0,0
		c0.02,0.01,0.03,0.02,0.05,0.04c0,0,0.01,0,0.01,0.01c0.02,0.01,0.03,0.02,0.05,0.04c0,0,0,0,0,0c0.01,0.01,0.02,0.02,0.03,0.02
		c0,0,0,0,0,0c0.01,0,0.01,0.01,0.02,0.01c0,0,0,0,0,0c0.01,0.01,0.02,0.01,0.03,0.02c0,0,0,0,0.01,0c0.02,0.01,0.04,0.03,0.05,0.04
		c0,0,0,0,0,0c0.02,0.01,0.04,0.03,0.06,0.04c0,0,0,0,0,0c0.07,0.05,0.14,0.09,0.21,0.14c0,0,0,0,0,0c0.02,0.01,0.04,0.02,0.06,0.04
		c0,0,0,0,0,0c0.02,0.01,0.04,0.02,0.06,0.04c0,0,0,0,0,0c0.01,0.01,0.03,0.02,0.04,0.02c0,0,0,0,0,0c0.02,0.01,0.04,0.02,0.06,0.04
		c0,0,0,0,0,0c0.79,0.49,1.64,0.89,2.53,1.19c0,0,0,0,0,0c0.02,0.01,0.04,0.01,0.07,0.02c0,0,0,0,0,0c0.02,0.01,0.04,0.01,0.06,0.02
		c0,0,0,0,0,0c0.02,0.01,0.04,0.01,0.06,0.02c0,0,0,0,0,0c0.02,0.01,0.04,0.01,0.07,0.02c0,0,0,0,0,0c0.01,0,0.03,0.01,0.04,0.01
		c0,0,0,0,0.01,0c0.02,0.01,0.04,0.01,0.06,0.02c0,0,0,0,0.01,0c0.02,0.01,0.04,0.01,0.06,0.02c0,0,0.01,0,0.01,0
		c0.01,0,0.02,0.01,0.03,0.01c0,0,0.01,0,0.01,0c0.01,0,0.01,0,0.02,0.01c0,0,0.01,0,0.01,0c0.01,0,0.02,0.01,0.03,0.01
		c0,0,0.01,0,0.01,0c0.01,0,0.01,0,0.02,0c0.01,0,0.01,0,0.02,0c0.01,0,0.02,0,0.02,0.01c0.01,0,0.01,0,0.02,0c0.01,0,0.01,0,0.02,0
		c0.01,0,0.02,0,0.02,0.01c0,0,0.01,0,0.01,0c0.01,0,0.01,0,0.02,0c0,0,0.01,0,0.01,0c0.01,0,0.02,0,0.03,0.01c0,0,0.01,0,0.01,0
		c0.01,0,0.01,0,0.02,0c0.01,0,0.01,0,0.02,0c0.01,0,0.02,0,0.03,0.01c0,0,0.01,0,0.01,0c0.01,0,0.02,0,0.03,0.01c0,0,0.01,0,0.01,0
		c0.01,0,0.02,0,0.02,0.01c0,0,0.01,0,0.01,0c0.01,0,0.02,0,0.03,0.01c0,0,0.01,0,0.01,0c0.01,0,0.02,0,0.02,0.01c0,0,0.01,0,0.01,0
		c0.01,0,0.02,0.01,0.03,0.01c0,0,0,0,0.01,0c0.01,0,0.02,0,0.03,0.01c0,0,0,0,0.01,0c0.01,0,0.02,0,0.03,0.01c0,0,0.01,0,0.01,0
		c0.01,0,0.02,0,0.03,0.01c0,0,0,0,0,0c0.01,0,0.02,0.01,0.03,0.01c0,0,0,0,0,0c0.02,0.01,0.05,0.01,0.07,0.02c0,0,0,0,0,0
		c0.61,0.13,1.24,0.22,1.88,0.26l0.23-3.99C293.83,535.83,291.39,534.31,290.03,531.92L290.03,531.92z M320.32,536h-12v4h12V536
		L320.32,536z M344.32,536h-12v4h12V536L344.32,536z M368.32,536h-12v4h12V536L368.32,536z M392.32,536h-12v4h12V536L392.32,536z
		 M416.32,536h-12v4h12V536L416.32,536z M440.32,536h-12v4h12V536L440.32,536z M464.32,536h-12v4h12V536L464.32,536z M488.32,536
		h-12v4h12V536L488.32,536z M512.32,536h-12v4h12V536L512.32,536z M536.32,536h-12v4h12V536L536.32,536z M560.32,536h-12v4h12V536
		L560.32,536z M584.32,536h-12v4h12V536L584.32,536z M608.32,536h-12v4h12V536L608.32,536z M632.32,536h-12v4h12V536L632.32,536z
		 M656.32,536h-12v4h12V536L656.32,536z M680.32,536h-12v4h12V536L680.32,536z M704.32,536h-12v4h12V536L704.32,536z M728.32,536
		h-12v4h12V536L728.32,536z M752.32,536h-12v4h12V536L752.32,536z M776.32,536h-12v4h12V536L776.32,536z M800.32,536h-12v4h12V536
		L800.32,536z M824.32,536h-12v4h12V536L824.32,536z M848.32,536h-12v4h12V536L848.32,536z M872.32,536h-12v4h12V536L872.32,536z
		 M896.32,536h-12v4h12V536L896.32,536z M920.32,536h-12v4h12V536L920.32,536z M944.32,536h-12v4h12V536L944.32,536z M968.32,536
		h-12v4h12V536L968.32,536z M992.32,536h-12v4h12V536L992.32,536z M1016.32,536h-12v4h12V536L1016.32,536z M1040.32,536h-12v4h12
		V536L1040.32,536z M1064.32,536h-12v4h12V536L1064.32,536z M1088.32,536h-12v4h12V536L1088.32,536z M1112.32,536h-12v4h12V536
		L1112.32,536z M1136.32,536h-12v4h12V536L1136.32,536z M1160.32,536h-12v4h12V536L1160.32,536z M1184.32,536h-12v4h12V536
		L1184.32,536z M1208.32,536h-12v4h12V536L1208.32,536z M1232.32,536h-12v4h12V536L1232.32,536z M1256.32,536h-12v4h12V536
		L1256.32,536z M1280.32,536h-12v4h12V536L1280.32,536z M1304.32,536h-12v4h12V536L1304.32,536z M1328.32,536h-12v4h12V536
		L1328.32,536z M1352.32,536h-12v4h12V536L1352.32,536z M1376.32,536h-12v4h12V536L1376.32,536z M1400.32,536h-12v4h12V536
		L1400.32,536z M1424.32,536h-12v4h12V536L1424.32,536z M1448.32,536h-12v4h12V536L1448.32,536z M1472.32,536h-12v4h12V536
		L1472.32,536z M1496.32,536h-12v4h12V536L1496.32,536z M1520.32,536h-12v4h12V536L1520.32,536z M1544.32,536h-12v4h12V536
		L1544.32,536z M1568.32,536h-12v4h12V536L1568.32,536z M1589.57,534.55c-1.35,0.95-2.93,1.45-4.57,1.45h-4.68v4h4.68l0,0
		c0.01,0,0.02,0,0.03,0c0,0,0.01,0,0.01,0c0.01,0,0.02,0,0.02,0c0,0,0.01,0,0.01,0c0.01,0,0.02,0,0.03,0c0,0,0,0,0.01,0
		c0.01,0,0.02,0,0.03,0c0,0,0.01,0,0.01,0c0.01,0,0.02,0,0.03,0c0,0,0.01,0,0.01,0c0.01,0,0.02,0,0.03,0c0,0,0.01,0,0.01,0
		c0.01,0,0.02,0,0.04,0c0,0,0,0,0.01,0c0.01,0,0.02,0,0.03,0c0,0,0.01,0,0.01,0c0.01,0,0.02,0,0.02,0c0,0,0.01,0,0.01,0
		c0.01,0,0.02,0,0.03,0c0,0,0,0,0.01,0c0.01,0,0.02,0,0.03,0c0,0,0.01,0,0.01,0c0.01,0,0.02,0,0.03,0c0,0,0.01,0,0.01,0
		c0.01,0,0.02,0,0.03,0c0,0,0,0,0.01,0c0.01,0,0.02,0,0.04,0c0,0,0,0,0.01,0c0.01,0,0.02,0,0.03,0c0,0,0.01,0,0.01,0
		c0.01,0,0.02,0,0.02,0c0,0,0.01,0,0.01,0c0.01,0,0.02,0,0.03,0c0,0,0,0,0,0c0.01,0,0.02,0,0.03,0c0,0,0.01,0,0.01,0
		c0.01,0,0.02,0,0.02,0c0,0,0.01,0,0.01,0c0.01,0,0.02,0,0.03,0c0,0,0.01,0,0.01,0c0.01,0,0.02,0,0.03,0c0,0,0.01,0,0.01,0
		c0.01,0,0.02,0,0.03,0c0,0,0.01,0,0.01,0c0.01,0,0.02,0,0.02,0c0,0,0.01,0,0.01,0c0.01,0,0.02,0,0.03,0c0,0,0.01,0,0.01,0
		c0.01,0,0.02,0,0.03,0c0,0,0.01,0,0.01,0c0.01,0,0.02,0,0.02,0c0,0,0.01,0,0.01,0c0.01,0,0.02,0,0.03,0c0,0,0,0,0.01,0
		c0.01,0,0.02,0,0.03,0c0,0,0.01,0,0.01,0c0.01,0,0.01,0,0.02,0c0,0,0.01,0,0.01,0c0.01,0,0.01,0,0.02,0c0,0,0.01,0,0.01,0
		c0.01,0,0.02,0,0.03,0c0,0,0.01,0,0.01,0c0.01,0,0.02,0,0.02,0c0,0,0.01,0,0.01,0c0.01,0,0.01,0,0.02,0c0,0,0.01,0,0.01,0
		c0.01,0,0.02,0,0.03,0c0,0,0.01,0,0.01,0c0.01,0,0.02,0,0.03,0c0,0,0.01,0,0.01,0c0.01,0,0.01,0,0.02,0c0,0,0.01,0,0.01,0
		c0.01,0,0.02,0,0.02,0c0,0,0.01,0,0.01,0c0.01,0,0.02,0,0.03,0c0,0,0.01,0,0.01,0c0.01,0,0.01,0,0.02,0c0,0,0.01,0,0.01,0
		c0.01,0,0.01,0,0.02,0c0.01,0,0.01,0,0.01,0c0.01,0,0.02,0,0.03,0c0,0,0.01,0,0.01,0c0.01,0,0.01,0,0.02,0c0.01,0,0.01,0,0.02,0
		c0.01,0,0.01,0,0.02,0c0,0,0.01,0,0.01,0c0.01,0,0.01,0,0.02,0c0.01,0,0.01,0,0.02,0c0.01,0,0.01,0,0.02,0c0.01,0,0.01,0,0.02,0
		s0.01,0,0.02,0c0.01,0,0.01,0,0.02,0c0.01,0,0.01,0,0.02,0c0.01,0,0.01,0,0.02,0c0.01,0,0.02,0,0.03,0c0.01,0,0.01,0,0.02,0
		c0.01,0,0.01,0,0.02,0s0.01,0,0.02,0c0.01,0,0.01,0,0.02,0c0.01,0,0.01,0,0.02,0c0.01,0,0.01,0,0.02,0c0.01,0,0.02,0,0.03,0
		c0.01,0,0.01,0,0.02,0c0.01,0,0.01,0,0.02,0c0.01,0,0.01,0,0.02,0c0.01,0,0.01,0,0.02,0c0.01,0,0.01,0,0.02,0
		c0.01,0,0.02,0,0.03-0.01c0,0,0.01,0,0.01,0c0.01,0,0.01,0,0.02,0c0,0,0.01,0,0.01,0c0.01,0,0.01,0,0.02,0c0,0,0.01,0,0.01,0
		c0.01,0,0.01,0,0.02,0c0,0,0.01,0,0.01,0c0.01,0,0.03,0,0.04-0.01c0,0,0.01,0,0.01,0c0.01,0,0.01,0,0.02,0c0,0,0.01,0,0.01,0
		c0.01,0,0.01,0,0.02,0c0,0,0.01,0,0.01,0c0.01,0,0.03-0.01,0.04-0.01c0,0,0,0,0.01,0c0.01,0,0.01,0,0.02,0c0,0,0.01,0,0.01,0
		c0.01,0,0.01,0,0.02,0c0,0,0.01,0,0.01,0c0.02-0.01,0.05-0.01,0.07-0.02c0,0,0.01,0,0.01,0c0.01,0,0.02,0,0.02,0c0,0,0.01,0,0.01,0
		c0.01,0,0.02,0,0.02,0c0,0,0,0,0,0c0.02,0,0.03-0.01,0.05-0.01c0,0,0,0,0,0c0.01,0,0.02,0,0.02-0.01c0,0,0.01,0,0.01,0
		c0.01,0,0.02,0,0.02-0.01c0,0,0,0,0.01,0c0.03-0.01,0.05-0.01,0.08-0.02c0,0,0,0,0.01,0c0.01,0,0.02,0,0.02-0.01c0,0,0,0,0.01,0
		c0.03-0.01,0.05-0.01,0.08-0.02l0,0c0.01,0,0.02,0,0.03-0.01c0,0,0,0,0,0c0.05-0.01,0.09-0.02,0.14-0.03c0,0,0,0,0,0
		c0.04-0.01,0.07-0.02,0.11-0.03c0,0,0,0,0,0c0.04-0.01,0.07-0.02,0.11-0.03c0,0,0,0,0,0c0.89-0.25,1.74-0.6,2.53-1.04c0,0,0,0,0,0
		c0.03-0.02,0.06-0.04,0.1-0.05c0,0,0,0,0,0c0.01,0,0.01-0.01,0.02-0.01c0,0,0,0,0,0c0.02-0.01,0.05-0.03,0.07-0.04c0,0,0,0,0,0
		c0.01,0,0.01-0.01,0.02-0.01c0,0,0,0,0.01,0c0.01,0,0.01-0.01,0.02-0.01c0,0,0,0,0,0c0.01-0.01,0.03-0.02,0.04-0.02c0,0,0,0,0.01,0
		c0.01,0,0.01-0.01,0.02-0.01c0,0,0.01,0,0.01-0.01c0.01,0,0.01-0.01,0.02-0.01c0,0,0.01-0.01,0.01-0.01c0,0,0.01-0.01,0.01-0.01
		c0.01-0.01,0.02-0.01,0.03-0.02c0,0,0.01-0.01,0.01-0.01c0,0,0.01-0.01,0.01-0.01c0,0,0.01-0.01,0.01-0.01c0,0,0.01-0.01,0.01-0.01
		c0,0,0.01-0.01,0.01-0.01c0.01-0.01,0.02-0.01,0.03-0.02c0,0,0.01,0,0.01-0.01c0.01,0,0.01-0.01,0.02-0.01c0,0,0.01,0,0.01-0.01
		c0.01,0,0.01-0.01,0.02-0.01c0,0,0.01,0,0.01-0.01c0.01-0.01,0.02-0.01,0.03-0.02c0,0,0,0,0,0c0.01-0.01,0.02-0.01,0.03-0.02
		c0,0,0,0,0.01,0c0.01,0,0.02-0.01,0.02-0.01c0,0,0,0,0.01,0c0.01-0.01,0.02-0.01,0.03-0.02c0,0,0,0,0,0
		c0.01-0.01,0.02-0.01,0.03-0.02l0,0c0.01-0.01,0.02-0.01,0.03-0.02c0,0,0,0,0,0c0.13-0.08,0.26-0.17,0.38-0.26L1589.57,534.55
		L1589.57,534.55z M1597,515.52h-4v12h4V515.52L1597,515.52z M1597,491.52h-4v12h4V491.52L1597,491.52z M1597,467.52h-4v12h4V467.52
		L1597,467.52z M1597,443.52h-4v12h4V443.52L1597,443.52z M1597,419.52h-4v12h4V419.52L1597,419.52z M1595.76,395.71l-3.58,1.77
		c0.54,1.1,0.82,2.28,0.82,3.51v6.52h4V401l0,0c0-0.01,0-0.03,0-0.04c0,0,0-0.01,0-0.01c0-0.01,0-0.02,0-0.03c0-0.01,0-0.01,0-0.02
		c0-0.01,0-0.02,0-0.03c0-0.01,0-0.01,0-0.02c0-0.01,0-0.02,0-0.02c0-0.01,0-0.01,0-0.02c0-0.01,0-0.02,0-0.02c0-0.01,0-0.01,0-0.02
		c0-0.01,0-0.02,0-0.03c0,0,0-0.01,0-0.01c0-0.01,0-0.03,0-0.04c0,0,0-0.01,0-0.01c0-0.01,0-0.02,0-0.03c0-0.01,0-0.01,0-0.02
		c0-0.01,0-0.02,0-0.02c0-0.01,0-0.01,0-0.02c0-0.01,0-0.02,0-0.02c0-0.01,0-0.01,0-0.02c0-0.01,0-0.02,0-0.02c0-0.01,0-0.01,0-0.02
		c0-0.01,0-0.02,0-0.02c0-0.01,0-0.01,0-0.02c0-0.01,0-0.02,0-0.03c0,0,0-0.01,0-0.01c0-0.01,0-0.03,0-0.04c0,0,0-0.01,0-0.01
		c0-0.01,0-0.02,0-0.03c0-0.01,0-0.01,0-0.02c0-0.01,0-0.02,0-0.02c0-0.01,0-0.01,0-0.02c0-0.01,0-0.01,0-0.02c0-0.01,0-0.01,0-0.02
		c0-0.01,0-0.02,0-0.02c0-0.01,0-0.01,0-0.02c0-0.01,0-0.02,0-0.02c0-0.01,0-0.01,0-0.02c0-0.01,0-0.02,0-0.03c0-0.01,0-0.01,0-0.02
		c0-0.01,0-0.02,0-0.03c0-0.01,0-0.01,0-0.02c0-0.01,0-0.02,0-0.02c0-0.01,0-0.01,0-0.02c0-0.01,0-0.01,0-0.02c0-0.01,0-0.01,0-0.02
		c0-0.01,0-0.01,0-0.02c0-0.01,0-0.01,0-0.02c0-0.01,0-0.01,0-0.02c0-0.01,0-0.01,0-0.02c0-0.01,0-0.02,0-0.02c0-0.01,0-0.01,0-0.02
		c0-0.01,0-0.02,0-0.03c0-0.01,0-0.01,0-0.02c0-0.01,0-0.02,0-0.03c0-0.01,0-0.01,0-0.02c0-0.01,0-0.02,0-0.02c0-0.01,0-0.01,0-0.02
		c0-0.01,0-0.01,0-0.02c0-0.01,0-0.01,0-0.02c0-0.01,0-0.01,0-0.02c0-0.01,0-0.01,0-0.02c0-0.01,0-0.01,0-0.02c0-0.01,0-0.01,0-0.02
		c0-0.01,0-0.01,0-0.02c0-0.01,0-0.01,0-0.02c0-0.01,0-0.02,0-0.03c0-0.01,0-0.01,0-0.02c0-0.01,0-0.02,0-0.02c0-0.01,0-0.01,0-0.02
		c0-0.01,0-0.01,0-0.02c0-0.01,0-0.01,0-0.02c0-0.01,0-0.01,0-0.02c0-0.01,0-0.01,0-0.02c0-0.01,0-0.01,0-0.02c0-0.01,0-0.01,0-0.02
		c0-0.01,0-0.01,0-0.02c0-0.01,0-0.01,0-0.02c0-0.01,0-0.01,0-0.02c0-0.01,0-0.02,0-0.03c0-0.01,0-0.02,0-0.03c0-0.01,0-0.01,0-0.02
		c0-0.01,0-0.02,0-0.02c0-0.01,0-0.01,0-0.02c0-0.01,0-0.01,0-0.02c0-0.01,0-0.01,0-0.02c0-0.01,0-0.01,0-0.02c0-0.01,0-0.01,0-0.02
		c0-0.01,0-0.01,0-0.02c0-0.01,0-0.01,0-0.02c0-0.01,0-0.01,0-0.02c0-0.01,0-0.01,0-0.02c0-0.01,0-0.02,0-0.02
		c0-0.01,0-0.02-0.01-0.03c0-0.01,0-0.01,0-0.02c0-0.01,0-0.01,0-0.02c0-0.01,0-0.01,0-0.02c0-0.01,0-0.01,0-0.02
		c0-0.01,0-0.01,0-0.02c0-0.01,0-0.01,0-0.02c0-0.01,0-0.01,0-0.02c0-0.01,0-0.01,0-0.02c0-0.01,0-0.01,0-0.02c0-0.01,0-0.01,0-0.02
		c0-0.01,0-0.01,0-0.02c0-0.01,0-0.01,0-0.02c0-0.01,0-0.02-0.01-0.03c0-0.01,0-0.02-0.01-0.03c0-0.01,0-0.02,0-0.02
		c0-0.01,0-0.01,0-0.02c0-0.01,0-0.01,0-0.02c0-0.01,0-0.01,0-0.02s0-0.01,0-0.02c0-0.01,0-0.01,0-0.02s0-0.01,0-0.02
		c0-0.01,0-0.01,0-0.02c0-0.01,0-0.01,0-0.02c0-0.01,0-0.01,0-0.02c0-0.01,0-0.01,0-0.02c0-0.01,0-0.01,0-0.02
		c0-0.01-0.01-0.02-0.01-0.04c0-0.01,0-0.01,0-0.02c0-0.01,0-0.01,0-0.02c0-0.01,0-0.01,0-0.02c0-0.01,0-0.01,0-0.02
		c0-0.01,0-0.01,0-0.02c0-0.01,0-0.01,0-0.02c0-0.01,0-0.01-0.01-0.02c0-0.01,0-0.01,0-0.02c0-0.01,0-0.01-0.01-0.02
		c0-0.01,0-0.01,0-0.02c0-0.01,0-0.01,0-0.02c0-0.01,0-0.01-0.01-0.02c0-0.01,0-0.02-0.01-0.03c0-0.01,0-0.02-0.01-0.03
		c0-0.01,0-0.01,0-0.02c0-0.01,0-0.01-0.01-0.02c0-0.01,0-0.01,0-0.02c0-0.01,0-0.01-0.01-0.02c0-0.01,0-0.01,0-0.02
		c0-0.01,0-0.01-0.01-0.02c0-0.01,0-0.01,0-0.02c0-0.01,0-0.01-0.01-0.02c0-0.01,0-0.01,0-0.02c0-0.01,0-0.01-0.01-0.02
		c0-0.01,0-0.01,0-0.02c0-0.01-0.01-0.02-0.01-0.03c0,0,0-0.01,0-0.01c0-0.01-0.01-0.02-0.01-0.03c0,0,0-0.01,0-0.01
		c0-0.01,0-0.02-0.01-0.02c0-0.01,0-0.01,0-0.02c0-0.01,0-0.02-0.01-0.02c0-0.01,0-0.01,0-0.02c0-0.01,0-0.02-0.01-0.02
		c0-0.01,0-0.01,0-0.02c0-0.01,0-0.02-0.01-0.02c0,0,0-0.01,0-0.01c0-0.01-0.01-0.02-0.01-0.03c0,0,0-0.01,0-0.01
		c0-0.01-0.01-0.03-0.01-0.04c0,0,0-0.01,0-0.01c0-0.01-0.01-0.02-0.01-0.03c0,0,0-0.01,0-0.01c0-0.01-0.01-0.02-0.01-0.03
		c0,0,0-0.01,0-0.01c0-0.01-0.01-0.02-0.01-0.03c0,0,0-0.01,0-0.01c0-0.01-0.01-0.02-0.01-0.03c0,0,0-0.01,0-0.01
		c0-0.01-0.01-0.02-0.01-0.03c0,0,0-0.01,0-0.01c-0.01-0.03-0.02-0.05-0.03-0.08c0,0,0,0,0-0.01c0-0.01-0.01-0.02-0.01-0.03
		c0,0,0-0.01,0-0.01c0-0.01-0.01-0.02-0.01-0.03c0,0,0-0.01,0-0.01c0-0.01-0.01-0.02-0.01-0.03c0,0,0-0.01,0-0.01
		c0-0.01-0.01-0.02-0.01-0.03c0,0,0-0.01,0-0.01c0-0.01-0.01-0.02-0.01-0.03c0,0,0,0,0,0c-0.01-0.03-0.02-0.05-0.03-0.08
		c0,0,0,0,0,0c0-0.01-0.01-0.02-0.01-0.04c0,0,0,0,0-0.01c0-0.01-0.01-0.02-0.01-0.03c0,0,0,0,0-0.01c0-0.01-0.01-0.02-0.01-0.03
		c0,0,0,0,0-0.01c0-0.01-0.01-0.02-0.01-0.04c0,0,0,0,0,0c-0.02-0.07-0.05-0.13-0.08-0.2l0,0
		C1596.05,396.32,1595.91,396.01,1595.76,395.71L1595.76,395.71z M1585,389v4c0.3,0,0.61,0.02,0.9,0.05l0.45-3.97
		c-0.34-0.04-0.69-0.06-1.04-0.07c0,0-0.01,0-0.01,0c-0.01,0-0.02,0-0.03,0c0,0-0.01,0-0.01,0c-0.01,0-0.02,0-0.02,0
		c-0.01,0-0.01,0-0.02,0c-0.01,0-0.02,0-0.02,0c-0.01,0-0.01,0-0.02,0c-0.01,0-0.01,0-0.02,0c-0.01,0-0.01,0-0.02,0
		c-0.01,0-0.01,0-0.02,0c-0.01,0-0.01,0-0.02,0c-0.01,0-0.01,0-0.02,0c-0.01,0-0.02,0-0.03,0c0,0-0.01,0-0.01,0
		C1585.03,389,1585.01,389,1585,389L1585,389L1585,389z"/>
</g>
<g>
	<defs>
		<rect x="228.03" y="412.07" width="1377.78" height="285.2"/>
		<text id="XMLID_1_" transform="matrix(1 0 0 1 361.1509 508.1914)" class="st2 st3">THE 50 STATES</text>
	</defs>
	<clipPath id="XMLID_3_">
		<use xlink:href="#XMLID_1_"  style="overflow:visible;"/>
	</clipPath>
	<g class="st4">
		<title>red yellow gradient linear 1920x1080 #f1eb15 #f12515 180°</title>
		<desc>red yellow gradient linear 1920x1080 #f1eb15 #f12515 180°</desc>
		<rect x="321" y="187" class="st5" width="1222" height="598"/>
		
			<linearGradient id="SVGID_1_" gradientUnits="userSpaceOnUse" x1="-0.1266" y1="1080.7667" x2="0.5099" y2="1080.7667" gradientTransform="matrix(1920 0 0 -1080 564 1167714)">
			<stop  offset="0" style="stop-color:#F1EB15"/>
			<stop  offset="1" style="stop-color:#F12515"/>
		</linearGradient>
		<rect x="321" y="187" class="st6" width="1222" height="598"/>
		<path class="st7" d="M324.45,190h1.15v1h-1.15v1h1.15l0,0h-1.15V190z M323.3,189h2.3v1h1.15v2h-1.15v1h-2.3l0,0h-1.15v-3h1.15v3
			h2.3v-3h-2.3V189z M329.05,190h-1.15v1h1.15V190h1.15v1h-1.15v1h1.15v1h-1.15v-1h-1.15v1h1.15v-1h-1.15v-1h1.15V190z M330.21,190
			h3.45v3h-2.3v-2h1.15v2h-2.3v-2h1.15v2h-1.15V190z M333.66,190h2.33l-0.64,1h-0.54v1l0,0v-1.53l1.15-0.55V193h-1.15v1h-1.15V190z
			 M337.11,189L337.11,189v3h1.15v1h-1.15V189z M338.26,190h2.18l-0.64,1h-0.39l0,0l0,0v-0.53l1.15-0.55V191h-1.15v1h1.15v1h-2.3
			V190z M340.56,192h1.15v1h-1.15V192z M341.71,190h2.3l0,0h-1.15v2h1.15v1h-2.3V190z M346.31,191L346.31,191v2h-1.42l0.64-1h0.78
			v-2h-1.15v2.13l1.15,0.55V191z M347.47,190h3.45v3h-2.3v-2h1.15v2h-2.3v-2h1.15v2h-1.15V190z"/>
		<text transform="matrix(1.1507 0 0 1 323.2505 781.9551)" class="st7 st8 st9">© xmple.com</text>
		<a xlink:href="https://www.xmple.com" >
			<text transform="matrix(1.1507 0 0 1 1466.4248 199.875)" class="st7 st8 st9">xmple.com</text>
		</a>
		<a xlink:href="https://www.xmple.com" >
			<g id="a_1_" transform="translate(1719.441615792,1041.900003) scale(0.0304799976)" class="st10">
				<path class="st11" d="M-9625.03-8723.75c5.73,0,10.19,1.66,13.37,4.98c3.82,3.32,5.73,7.19,5.73,12.17
					c0,4.43-1.91,8.3-5.73,12.17c-15.92,11.62-33.11,20.47-52.21,27.11c-19.1,6.09-39.47,9.41-60.48,9.41
					c-47.75,0-88.5-14.39-122.24-44.26c-38.28-33.27-55.26-74.38-50-123.32c3-27.93,16.05-54.95,36.72-76.49
					c36.15-37.68,81.33-56.92,135.52-56.92c21.01,0,41.38,3.32,60.48,9.41c19.1,6.09,36.93,15.49,52.21,27.11
					c4.46,3.32,7,7.75,7,12.73c0,4.98-1.91,8.85-5.73,12.17c-3.82,3.32-8.28,4.98-13.37,4.98c-4.46,0-8.91-1.11-12.1-3.87
					c-24.83-18.81-54.75-28.77-88.5-28.77c-42.67,0-77.13,14.99-105.23,44.17c-16.1,16.72-26.21,37.86-28.43,59.58
					c-3.94,38.53,9.3,69.81,38.79,95.44c26.1,22.69,57.94,34.31,94.86,34.31c15.92,0,31.83-2.77,47.11-7.75
					c15.28-4.98,28.65-12.17,40.75-21.03c3.18-2.21,7-3.32,12.1-3.32H-9625.03z M-9476.04-8820.06
					c0,59.76-24.19,111.21-73.22,153.27c-48.39,42.05-107.6,63.08-175.72,63.08c-68.76,0-127.33-21.03-176.36-63.08
					c-48.39-42.6-73.22-93.51-73.22-153.27c0-59.76,24.19-110.66,73.22-152.71c48.39-42.6,106.96-63.63,176.36-63.63
					c68.76,0,127.33,21.03,175.72,63.63C-9500.24-8930.73-9476.04-8879.82-9476.04-8820.06z M-9714.9-9013.72
					c-61.12,0-113.96,18.81-157.89,56.99c-43.29,37.62-64.94,83-64.94,136.67s21.65,99.04,64.94,137.22
					c43.93,37.62,96.77,56.99,157.89,56.99s113.33-18.81,157.26-56.99c43.93-38.18,65.58-83.55,65.58-136.67
					c0-53.67-21.65-99.04-65.58-136.67c-43.29-38.18-95.5-56.99-157.26-56.99V-9013.72z M-9128.42-8810.66l-118.42-123.39
					c-3.18-2.77-4.46-6.64-4.46-11.07s1.91-8.85,5.73-11.62c3.82-3.32,8.28-4.98,14.01-4.98c5.09,0,9.55,1.66,13.37,4.98
					l115.24,119.51l114.6-119.51c4.46-3.32,8.91-4.98,14.01-4.98c5.73,0,10.19,1.66,14.01,4.98c3.82,3.32,5.73,7.19,5.73,12.17
					c0,4.43-1.91,8.3-4.46,11.07l-119.06,123.39l119.69,124.49c2.55,3.32,3.82,6.64,3.82,10.51c0,4.98-1.91,8.85-5.73,12.17
					c-3.82,3.32-8.28,4.98-14.01,4.98c-5.09,0-9.55-1.66-12.73-4.98l-115.87-120.07l-115.87,120.07c-3.18,3.32-7.64,4.98-12.73,4.98
					c-5.73,0-10.19-1.66-14.01-4.98c-3.82-3.32-5.73-7.19-5.73-11.62c0-3.87,1.27-7.19,3.82-9.96L-9128.42-8810.66z
					 M-8846.62-8675.65c-19.5,4.98-21.41,8.85-25.22,12.17c-3.82,3.32-8.28,4.98-14.01,4.98c-5.09,0-9.55-1.66-13.37-4.98
					c-3.82-3.32-5.73-7.19-22.9-11.62V-8944c17.17-4.43,19.08-8.85,22.9-11.62c3.82-3.32,8.28-4.98,13.37-4.98
					c5.73,0,10.19,1.66,14.01,4.98c3.82,3.32,25.22,12.17,25.22,12.17v18.84c30.45-22.68,62.14-34.02,94.46-34.02
					c36.04,0,67.11,11.34,93.21,34.02c6.21,5.4,13.05,12.42,19.89,20.52c6.83-8.1,13.67-15.12,19.88-20.52
					c23.36-20.3,50.7-31.08,82.02-33.12c38.72-2.52,78.11,10.08,105.45,34.04c25.2,22.08,38.1,49.49,38.1,80.63v169.86
					c0,4.84-1.86,8.61-5.57,11.83c-3.71,3.23-8.04,4.84-13.62,4.84c-4.95,0-9.28-1.61-13-4.84c-3.71-3.23-5.57-6.99-5.57-11.29
					l0-167.26c0-19.1-6.41-38.35-20.57-52.96c-20.21-20.85-44.21-31.27-73.8-31.27c-29.95,0-55.6,11.2-75.95,33.61
					c-12.99,14.3-18.43,32.73-18.43,50.95v166.95c0,4.84-1.86,8.61-5.57,11.83c-3.71,3.23-8.04,4.84-13,4.84
					c-5.57,0-9.9-1.61-13.62-4.84c-3.71-3.23-5.57-6.99-5.57-11.29v-167.14c0-18.94-5.82-38.13-19.7-52.74
					c-26.3-27.67-61.12-37.26-102.39-28.75c-9.5,1.96-18.66,5.88-26.29,11.18c-26.54,18.39-40.37,40.45-40.37,68.11V-8675.65z
					 M-8318.1-8810.1c0,32.65,13.37,60.31,40.11,83c26.1,23.24,57.94,34.86,95.5,34.86c37.56,0,69.4-11.62,95.5-34.3
					c26.74-22.69,39.47-50.35,39.47-83c0-32.65-12.73-60.31-39.47-83c-26.1-23.24-57.94-34.31-95.5-34.31
					c-37.56,0-69.4,11.62-95.5,34.86c-26.74,23.24-40.11,50.9-40.11,83V-8810.1z M-8318.1-8547.96c0,4.92-1.89,8.75-5.66,12.03
					c-3.78,2.73-8.18,4.37-13.21,4.37c-5.66,0-10.07-1.64-13.84-4.37c-3.77-3.28-5.03-7.11-5.03-12.03v-260.83
					c0-41.01,16.36-76.55,50.33-105.53c33.35-28.98,73.62-43.74,121.43-43.74c47.19,0,88.09,14.76,121.43,43.74
					c33.98,28.98,50.33,64.52,50.33,105.53c0,41.56-16.36,76.55-50.33,105.53c-33.35,28.98-74.24,43.75-121.43,43.75
					c-47.82,0-88.09-14.76-121.43-43.75l-12.58-10.39V-8547.96z M-7940.59-9056.6c0-4.23,1.86-8.47,5.57-11.11
					c3.71-3.17,8.05-4.76,13-4.76c5.57,0,9.9,1.59,13.62,4.76c3.71,3.17,5.57,6.88,5.57,11.11v365.66h30.94
					c5.57,0,9.9,1.59,13.62,4.76c3.71,3.18,5.57,6.88,5.57,11.64c0,4.76-1.86,8.47-5.57,11.64c-3.71,3.17-8.04,4.76-13.62,4.76
					h-50.13c-4.95,0-9.28-1.59-13-4.76c-3.71-3.18-5.57-6.88-5.57-11.11V-9056.6z M-7500.46-8822.73
					c-5.73-26.56-19.1-49.24-38.84-66.4c-26.74-23.24-58.57-34.3-96.14-34.3c-36.93,0-68.76,11.62-95.5,34.86
					c-19.74,17.15-33.11,39.29-39.47,66.4L-7500.46-8822.73z M-7525.33-8720.76c5.73,0,10.19,1.66,14.01,4.98
					c3.18,3.32,5.09,7.19,5.09,12.17c0,4.43-1.27,8.3-4.46,11.62c-32.47,24.34-70.66,36.52-113.95,36.52
					c-46.14,0-91.52-16.59-123.91-45.15c-37.75-33.29-54.36-75.03-48.91-123.65c3.11-27.74,15.99-54.6,36.41-76.1
					c35.97-37.87,82.06-57.21,136.39-57.21c48.39,0,89.13,14.94,123.51,44.26c33.74,29.33,50.93,65.29,50.93,106.79
					c0,4.98-1.91,8.85-5.73,12.17c-3.82,3.32-8.28,4.98-14.01,4.98h-289.68c6.37,27.11,19.74,49.24,39.47,66.4
					c26.74,23.24,58.57,34.86,95.5,34.86c17.19,0,33.11-2.21,47.75-7.19c14.01-4.98,27.38-11.62,39.47-20.47
					c3.82-2.21,7.64-3.87,12.1-3.87V-8720.76z M-7340.66-8686.72c0,7.75-3.18,14.39-9.55,19.92c-5.73,5.53-13.37,8.3-22.92,8.3
					c-8.91,0-16.55-2.77-22.92-8.3c-5.73-5.53-8.91-12.17-8.91-19.92s3.18-14.39,8.91-19.92c6.37-5.53,14.01-8.3,22.92-8.3
					c9.55,0,17.19,2.77,22.92,8.3C-7343.84-8701.66-7340.66-8695.02-7340.66-8686.72z M-6996.81-8724.34
					c5.09,0,9.55,1.66,13.37,4.98c3.82,3.32,5.73,7.19,5.73,12.17c0,4.98-1.91,8.85-5.73,12.17
					c-15.92,11.62-33.11,20.47-52.84,27.11c-19.1,6.09-39.47,9.41-60.48,9.41c-48.39,0-89.13-14.94-123.51-44.26
					c-33.74-29.33-50.93-65.29-50.93-106.79s17.19-77.46,50.93-106.79c34.38-29.33,75.13-44.26,123.51-44.26
					c21.01,0,41.38,3.32,61.12,9.41c19.1,6.09,36.29,15.49,52.21,27.11c1.91,1.66,3.18,3.87,4.46,6.09
					c1.91,2.21,2.55,4.98,2.55,7.19c0,4.43-1.91,8.85-5.73,11.62c-3.82,3.32-8.28,4.98-14.01,4.98c-4.46,0-8.91-1.11-12.1-3.87
					c-29.2-22.21-63.43-31.32-103.64-28.17c-24.76,1.94-48.81,10.57-68.11,24.19c-34.58,24.4-52.35,55.42-52.35,93.06
					c0,32.65,13.37,60.31,39.47,83c26.74,23.24,58.57,34.86,96.14,34.86c15.92,0,31.83-2.77,47.11-7.75
					c15.28-4.98,29.29-12.17,41.38-21.03c3.18-2.21,7-3.32,11.46-3.32V-8724.34z M-6590.67-8810.1c0,42.05-17.19,77.46-50.93,106.79
					c-34.38,29.33-75.13,44.26-122.88,44.26c-48.39,0-89.13-14.94-123.51-44.26c-33.74-29.33-50.93-65.29-50.93-106.79
					s17.19-77.46,50.93-106.79c34.38-29.33,75.13-44.26,123.51-44.26c47.75,0,88.5,14.94,122.88,44.26
					C-6607.86-8887.57-6590.67-8851.6-6590.67-8810.1z M-6770.3-8927.96c-37.56,0-69.4,11.62-96.14,34.86
					c-26.74,23.24-39.47,50.9-39.47,83c0,32.65,12.73,60.31,39.47,83c26.74,23.24,58.57,34.86,96.14,34.86
					c36.93,0,68.76-11.62,95.5-34.3c26.1-22.69,39.47-50.35,39.47-83c0-32.65-13.37-60.31-39.47-83
					c-26.74-23.24-58.57-34.31-95.5-34.31V-8927.96z M-6506.04-8679.39c0,4.84-1.86,8.61-5.57,11.83
					c-3.71,3.23-8.05,4.84-13.62,4.84c-4.95,0-9.28-1.61-13-4.84c-3.71-3.23-5.57-6.99-5.57-11.29v-261.39
					c0-4.3,1.86-8.61,5.57-11.29c3.71-3.23,8.04-4.84,13-4.84c5.57,0,9.9,1.61,13.62,4.84c3.71,3.23,5.57,6.99,5.57,11.83v15.1
					c30.45-22.68,62.14-34.02,94.46-34.02c36.04,0,67.11,11.34,93.21,34.02c6.21,5.4,13.05,12.42,19.89,20.52
					c6.84-8.1,13.05-15.12,19.89-20.52c23.36-20.3,50.7-31.08,82.02-33.12c38.72-2.52,78.11,10.08,105.45,34.04
					c25.2,22.08,38.1,49.49,38.1,80.63v169.86c0,4.84-1.86,8.61-5.57,11.83c-3.71,3.23-8.05,4.84-13.62,4.84
					c-4.95,0-9.28-1.61-13-4.84c-3.71-3.23-5.57-6.99-5.57-11.29v-167.26c0-19.1-6.41-38.35-20.57-52.96
					c-20.21-20.85-44.21-31.27-73.81-31.27c-29.95,0-55.6,11.2-75.95,33.61c-12.99,14.3-18.43,32.73-18.43,50.95l0,166.95
					c0,4.84-1.86,8.61-5.57,11.83c-3.71,3.23-8.05,4.84-13,4.84c-5.57,0-9.9-1.61-13.62-4.84c-3.71-3.23-5.57-6.99-5.57-11.29
					l0-167.86c0-18.73-6.05-37.69-19.8-52.12c-20.1-21.1-45.16-31.65-74.27-31.65c-29.78,0-54.71,10.52-74.81,31.55
					c-13.79,14.43-19.88,33.4-19.88,52.16L-6506.04-8679.39z"/>
			</g>
		</a>
	</g>
</g>
</svg>
